<svg width="173" height="48" viewBox="0 0 173 48" fill="none" xmlns="http://www.w3.org/2000/svg">
<g clip-path="url(#clip0_65_2)">
<path d="M167.393 29.5H4.60702C2.06263 29.5 0 31.5626 0 34.107V42.893C0 45.4374 2.06263 47.5 4.60702 47.5H167.393C169.937 47.5 172 45.4374 172 42.893V34.107C172 31.5626 169.937 29.5 167.393 29.5Z" fill="#E4F2F2"/>
<path d="M6.74805 42.5V34.8H11.775V35.933H8.15605V38.045H11.445V39.145H8.15605V41.367H11.775V42.5H6.74805ZM17.2364 42.632C16.6717 42.632 16.173 42.5367 15.7404 42.346C15.3077 42.148 14.9667 41.8693 14.7174 41.51C14.468 41.1433 14.3397 40.6997 14.3324 40.179H15.8174C15.832 40.5383 15.9604 40.8427 16.2024 41.092C16.4517 41.334 16.7927 41.455 17.2254 41.455C17.5994 41.455 17.8964 41.367 18.1164 41.191C18.3364 41.0077 18.4464 40.7657 18.4464 40.465C18.4464 40.1497 18.3474 39.904 18.1494 39.728C17.9587 39.552 17.702 39.409 17.3794 39.299C17.0567 39.189 16.712 39.0717 16.3454 38.947C15.7514 38.7417 15.2967 38.4777 14.9814 38.155C14.6734 37.8323 14.5194 37.4033 14.5194 36.868C14.512 36.4133 14.6184 36.0247 14.8384 35.702C15.0657 35.372 15.3737 35.119 15.7624 34.943C16.151 34.7597 16.5984 34.668 17.1044 34.668C17.6177 34.668 18.0687 34.7597 18.4574 34.943C18.8534 35.1263 19.1614 35.383 19.3814 35.713C19.6087 36.043 19.7297 36.4353 19.7444 36.89H18.2374C18.23 36.6187 18.1237 36.3803 17.9184 36.175C17.7204 35.9623 17.4417 35.856 17.0824 35.856C16.7744 35.8487 16.514 35.9257 16.3014 36.087C16.096 36.241 15.9934 36.4683 15.9934 36.769C15.9934 37.0257 16.074 37.231 16.2354 37.385C16.3967 37.5317 16.6167 37.6563 16.8954 37.759C17.174 37.8617 17.493 37.9717 17.8524 38.089C18.2337 38.221 18.582 38.375 18.8974 38.551C19.2127 38.727 19.4657 38.9617 19.6564 39.255C19.847 39.541 19.9424 39.9113 19.9424 40.366C19.9424 40.7693 19.8397 41.1433 19.6344 41.488C19.429 41.8327 19.1247 42.1113 18.7214 42.324C18.318 42.5293 17.823 42.632 17.2364 42.632ZM25.2999 42.632C24.7352 42.632 24.2365 42.5367 23.8039 42.346C23.3712 42.148 23.0302 41.8693 22.7809 41.51C22.5315 41.1433 22.4032 40.6997 22.3959 40.179H23.8809C23.8955 40.5383 24.0239 40.8427 24.2659 41.092C24.5152 41.334 24.8562 41.455 25.2889 41.455C25.6629 41.455 25.9599 41.367 26.1799 41.191C26.3999 41.0077 26.5099 40.7657 26.5099 40.465C26.5099 40.1497 26.4109 39.904 26.2129 39.728C26.0222 39.552 25.7655 39.409 25.4429 39.299C25.1202 39.189 24.7755 39.0717 24.4089 38.947C23.8149 38.7417 23.3602 38.4777 23.0449 38.155C22.7369 37.8323 22.5829 37.4033 22.5829 36.868C22.5755 36.4133 22.6819 36.0247 22.9019 35.702C23.1292 35.372 23.4372 35.119 23.8259 34.943C24.2145 34.7597 24.6619 34.668 25.1679 34.668C25.6812 34.668 26.1322 34.7597 26.5209 34.943C26.9169 35.1263 27.2249 35.383 27.4449 35.713C27.6722 36.043 27.7932 36.4353 27.8079 36.89H26.3009C26.2935 36.6187 26.1872 36.3803 25.9819 36.175C25.7839 35.9623 25.5052 35.856 25.1459 35.856C24.8379 35.8487 24.5775 35.9257 24.3649 36.087C24.1595 36.241 24.0569 36.4683 24.0569 36.769C24.0569 37.0257 24.1375 37.231 24.2989 37.385C24.4602 37.5317 24.6802 37.6563 24.9589 37.759C25.2375 37.8617 25.5565 37.9717 25.9159 38.089C26.2972 38.221 26.6455 38.375 26.9609 38.551C27.2762 38.727 27.5292 38.9617 27.7199 39.255C27.9105 39.541 28.0059 39.9113 28.0059 40.366C28.0059 40.7693 27.9032 41.1433 27.6979 41.488C27.4925 41.8327 27.1882 42.1113 26.7849 42.324C26.3815 42.5293 25.8865 42.632 25.2999 42.632ZM30.2393 42.5L33.0553 34.8H34.6393L37.4553 42.5H35.9593L35.3433 40.718H32.3403L31.7133 42.5H30.2393ZM32.7253 39.618H34.9583L33.8363 36.417L32.7253 39.618ZM41.0466 42.5V39.761L38.4616 34.8H40.0566L41.7616 38.353L43.4556 34.8H45.0286L42.4546 39.761V42.5H41.0466ZM53.1137 42.5L51.0787 34.8H52.5857L53.9717 40.927L55.5997 34.8H57.1507L58.7347 40.927L60.1207 34.8H61.6387L59.5487 42.5H57.8767L56.3477 36.791L54.7747 42.5H53.1137ZM64.1591 42.5V34.8H66.9861C67.6021 34.8 68.1081 34.9063 68.5041 35.119C68.9075 35.3243 69.2081 35.6067 69.4061 35.966C69.6041 36.318 69.7031 36.7103 69.7031 37.143C69.7031 37.6123 69.5785 38.0413 69.3291 38.43C69.0871 38.8187 68.7058 39.101 68.1851 39.277L69.7801 42.5H68.1631L66.7331 39.464H65.5671V42.5H64.1591ZM65.5671 38.43H66.8981C67.3675 38.43 67.7121 38.3163 67.9321 38.089C68.1521 37.8617 68.2621 37.561 68.2621 37.187C68.2621 36.8203 68.1521 36.527 67.9321 36.307C67.7195 36.087 67.3711 35.977 66.8871 35.977H65.5671V38.43ZM72.5126 42.5V34.8H73.9206V42.5H72.5126ZM78.706 42.5V35.933H76.462V34.8H82.369V35.933H80.114V42.5H78.706ZM84.9121 42.5V34.8H86.3201V42.5H84.9121ZM89.3125 42.5V34.8H90.7205L94.3395 40.223V34.8H95.7475V42.5H94.3395L90.7205 37.088V42.5H89.3125ZM102.106 42.632C101.38 42.632 100.746 42.467 100.203 42.137C99.6605 41.807 99.2389 41.3487 98.9382 40.762C98.6375 40.168 98.4872 39.4787 98.4872 38.694C98.4872 37.902 98.6412 37.2053 98.9492 36.604C99.2645 35.9953 99.7082 35.5223 100.28 35.185C100.86 34.8403 101.545 34.668 102.337 34.668C103.239 34.668 103.987 34.8843 104.581 35.317C105.175 35.7497 105.56 36.3473 105.736 37.11H104.163C104.046 36.7507 103.833 36.472 103.525 36.274C103.217 36.0687 102.821 35.966 102.337 35.966C101.567 35.966 100.973 36.2117 100.555 36.703C100.137 37.187 99.9282 37.8543 99.9282 38.705C99.9282 39.5557 100.134 40.2157 100.544 40.685C100.962 41.147 101.527 41.378 102.238 41.378C102.935 41.378 103.459 41.191 103.811 40.817C104.171 40.4357 104.387 39.937 104.46 39.321H102.513V38.265H105.879V42.5H104.581L104.471 41.488C104.222 41.8547 103.91 42.137 103.536 42.335C103.162 42.533 102.686 42.632 102.106 42.632ZM115.498 42.632C114.933 42.632 114.435 42.5367 114.002 42.346C113.569 42.148 113.228 41.8693 112.979 41.51C112.73 41.1433 112.601 40.6997 112.594 40.179H114.079C114.094 40.5383 114.222 40.8427 114.464 41.092C114.713 41.334 115.054 41.455 115.487 41.455C115.861 41.455 116.158 41.367 116.378 41.191C116.598 41.0077 116.708 40.7657 116.708 40.465C116.708 40.1497 116.609 39.904 116.411 39.728C116.22 39.552 115.964 39.409 115.641 39.299C115.318 39.189 114.974 39.0717 114.607 38.947C114.013 38.7417 113.558 38.4777 113.243 38.155C112.935 37.8323 112.781 37.4033 112.781 36.868C112.774 36.4133 112.88 36.0247 113.1 35.702C113.327 35.372 113.635 35.119 114.024 34.943C114.413 34.7597 114.86 34.668 115.366 34.668C115.879 34.668 116.33 34.7597 116.719 34.943C117.115 35.1263 117.423 35.383 117.643 35.713C117.87 36.043 117.991 36.4353 118.006 36.89H116.499C116.492 36.6187 116.385 36.3803 116.18 36.175C115.982 35.9623 115.703 35.856 115.344 35.856C115.036 35.8487 114.776 35.9257 114.563 36.087C114.358 36.241 114.255 36.4683 114.255 36.769C114.255 37.0257 114.336 37.231 114.497 37.385C114.658 37.5317 114.878 37.6563 115.157 37.759C115.436 37.8617 115.755 37.9717 116.114 38.089C116.495 38.221 116.844 38.375 117.159 38.551C117.474 38.727 117.727 38.9617 117.918 39.255C118.109 39.541 118.204 39.9113 118.204 40.366C118.204 40.7693 118.101 41.1433 117.896 41.488C117.691 41.8327 117.386 42.1113 116.983 42.324C116.58 42.5293 116.085 42.632 115.498 42.632ZM120.933 42.5V34.8H125.96V35.933H122.341V38.045H125.63V39.145H122.341V41.367H125.96V42.5H120.933ZM128.792 42.5V34.8H131.619C132.235 34.8 132.741 34.9063 133.137 35.119C133.54 35.3243 133.841 35.6067 134.039 35.966C134.237 36.318 134.336 36.7103 134.336 37.143C134.336 37.6123 134.211 38.0413 133.962 38.43C133.72 38.8187 133.339 39.101 132.818 39.277L134.413 42.5H132.796L131.366 39.464H130.2V42.5H128.792ZM130.2 38.43H131.531C132 38.43 132.345 38.3163 132.565 38.089C132.785 37.8617 132.895 37.561 132.895 37.187C132.895 36.8203 132.785 36.527 132.565 36.307C132.352 36.087 132.004 35.977 131.52 35.977H130.2V38.43ZM139.11 42.5L136.294 34.8H137.801L139.979 41.059L142.168 34.8H143.653L140.837 42.5H139.11ZM146.068 42.5V34.8H147.476V42.5H146.068ZM153.956 42.632C153.178 42.632 152.511 42.467 151.954 42.137C151.396 41.7997 150.967 41.334 150.667 40.74C150.366 40.1387 150.216 39.4457 150.216 38.661C150.216 37.8763 150.366 37.1833 150.667 36.582C150.967 35.9807 151.396 35.5113 151.954 35.174C152.511 34.8367 153.178 34.668 153.956 34.668C154.88 34.668 155.635 34.899 156.222 35.361C156.816 35.8157 157.186 36.4573 157.333 37.286H155.782C155.686 36.868 155.481 36.5417 155.166 36.307C154.858 36.065 154.447 35.944 153.934 35.944C153.222 35.944 152.665 36.186 152.262 36.67C151.858 37.154 151.657 37.8177 151.657 38.661C151.657 39.5043 151.858 40.168 152.262 40.652C152.665 41.1287 153.222 41.367 153.934 41.367C154.447 41.367 154.858 41.257 155.166 41.037C155.481 40.8097 155.686 40.498 155.782 40.102H157.333C157.186 40.894 156.816 41.5137 156.222 41.961C155.635 42.4083 154.88 42.632 153.956 42.632ZM160.079 42.5V34.8H165.106V35.933H161.487V38.045H164.776V39.145H161.487V41.367H165.106V42.5H160.079Z" fill="#0D2436"/>
<g filter="url(#filter0_d_65_2)">
<mask id="mask0_65_2" style="mask-type:luminance" maskUnits="userSpaceOnUse" x="0" y="0" width="173" height="33">
<path d="M172.421 0.5H0V32.7544H172.421V0.5Z" fill="white"/>
</mask>
<g mask="url(#mask0_65_2)">
<path fill-rule="evenodd" clip-rule="evenodd" d="M11.115 3.67468C10.2285 4.39428 9.07011 5.50937 7.92964 7.08307C6.78939 8.65699 5.66701 10.6891 4.98404 12.4664C4.30107 14.244 4.05728 15.7665 4.08171 16.9923C4.10636 18.2183 4.39899 19.1476 4.81126 19.7449C5.22376 20.3422 5.75566 20.6077 6.39386 20.6194C7.03205 20.6312 7.77631 20.3891 8.54702 19.8854C9.31774 19.3817 10.1152 18.6165 10.9191 17.7459C11.7231 16.8752 12.5341 15.8992 13.307 14.8215C14.0803 13.744 14.8155 12.5649 15.1823 11.9676C15.533 11.3965 15.4335 11.2835 16.0747 11.47C16.3404 11.5474 16.7142 11.6941 16.9964 11.9298C17.2787 12.1654 17.4693 12.49 17.4648 12.8648C17.4603 13.2396 17.2608 13.6646 16.9347 14.2815C16.6086 14.8984 16.1561 15.7072 15.7583 16.4763C15.3605 17.2455 15.0174 17.9756 14.7949 18.5845C14.5726 19.1936 14.471 19.6822 14.5828 19.9728C14.6945 20.2633 15.0197 20.3562 15.4324 20.1968C15.8451 20.0375 16.3454 19.6264 16.8906 19.0838C17.4359 18.5411 18.0263 17.8671 18.6742 17.051C19.3222 16.2349 20.028 15.2768 20.6517 14.3607C21.2334 13.5064 21.8284 12.658 22.3279 11.7535C22.3962 11.6299 22.4661 11.5036 22.5348 11.4442C22.6038 11.3851 22.6721 11.3929 22.8933 11.47C23.1145 11.5474 23.4883 11.6941 23.7705 11.9298C24.0528 12.1654 24.2434 12.49 24.2389 12.8648C24.2344 13.2396 24.0349 13.6646 23.7088 14.2815C23.3827 14.8984 22.9302 15.7072 22.5324 16.4763C22.1768 17.1635 21.7343 17.9816 21.5543 18.7376C21.4145 19.325 21.4681 19.7963 21.7255 19.9894C21.9828 20.1826 22.4414 20.0099 23.2248 19.2603C24.008 18.5107 25.1161 17.1844 26.1921 15.8512C27.2684 14.5183 28.3157 13.2665 29.0439 12.5206C29.7723 11.775 30.1819 11.5354 30.6029 11.4234C31.024 11.3113 31.4569 11.3269 31.7588 11.4349C32.0607 11.5432 32.2319 11.7441 32.333 11.9682C32.4341 12.1923 32.4662 12.4802 32.4547 12.6191C32.4434 12.7581 32.4519 12.7312 32.3423 12.743C32.2326 12.7545 32.003 12.7641 31.6113 12.9379C31.4666 13.0022 31.2913 13.0911 31.0923 13.2027C31.1618 14.2373 31.3395 15.2966 31.4578 16.3305C31.5718 17.3273 31.6292 18.131 31.5842 18.8884C31.5394 19.6455 31.3922 20.3565 31.0819 21.0134C30.7717 21.6703 30.2983 22.273 29.7477 22.6631C29.197 23.0532 28.5687 23.2311 27.9581 23.2776C27.3475 23.3238 26.7543 23.2389 26.3041 23.0148C25.8538 22.7907 25.5465 22.4275 25.3592 21.9871C25.1717 21.5467 25.1041 21.0289 25.1582 20.519C25.2125 20.009 25.3882 19.5068 25.6417 19.0393C25.8952 18.5718 26.2263 18.139 26.4888 17.9111C26.7514 17.683 26.9454 17.6599 27.0956 17.683C27.246 17.7061 27.3527 17.7757 27.4025 17.8337C27.4522 17.8918 27.4452 17.938 27.3857 18.0076C27.3265 18.0772 27.2152 18.1699 27.0472 18.4673C26.8792 18.7648 26.6548 19.2672 26.5429 19.7191C26.4309 20.1713 26.4312 20.5732 26.5377 20.832C26.6444 21.091 26.8577 21.2068 27.108 21.1834C27.3588 21.1603 27.647 20.998 27.9287 20.7237C28.2105 20.4494 28.486 20.063 28.682 19.5608C28.8781 19.0584 28.9948 18.4404 29.0362 17.7101C29.0776 16.9799 29.0439 16.1376 29.0213 15.4537C29.0118 15.1639 29.0045 14.9026 29.0023 14.6634C28.5515 15.0391 28.0692 15.4826 27.549 16.0213C25.8751 17.7546 24.3069 20.0901 22.6262 21.8121C21.7829 22.6762 19.8998 23.8464 18.6451 23.0492C17.7448 22.4775 17.7507 21.1612 17.9327 20.2678C17.9974 19.9505 18.0944 19.6335 18.2109 19.3212C17.6971 19.9752 17.214 20.5468 16.7522 21.0232C15.9957 21.8037 15.296 22.329 14.7008 22.6651C14.1056 23.0012 13.6148 23.1479 13.1989 23.1713C12.7831 23.1944 12.442 23.0939 12.1516 22.8545C11.8615 22.6149 11.6222 22.2363 11.4969 21.7303C11.3717 21.2241 11.3606 20.5905 11.4813 19.9027C11.5193 19.686 11.5707 19.4639 11.6363 19.2327C10.9074 20.2011 10.1751 21.115 9.21914 21.8806C8.42943 22.513 7.50154 23.0519 6.45356 23.3251C5.40581 23.5986 4.23798 23.6063 3.29855 23.3173C2.35913 23.0286 1.64857 22.4428 1.10219 21.5878C0.555582 20.7328 0.173389 19.6084 0.0462936 18.2895C-0.0808023 16.9708 0.0474243 15.4575 0.584303 13.6929C1.12141 11.9284 2.06762 9.91257 3.20832 8.10723C4.34901 6.30189 5.68443 4.70729 7.07502 3.46505C8.46584 2.22303 9.91161 1.33381 11.1132 0.881197C12.3147 0.428806 13.2718 0.413244 14.0255 0.651333C14.7793 0.889422 15.3295 1.38161 15.6823 1.98294C16.0353 2.58405 16.1907 3.29454 16.1597 4.17687C16.1287 5.05942 15.9112 6.11359 15.5294 7.1402C15.1477 8.16725 14.6017 9.16651 14.1119 9.96681C13.6221 10.7673 13.1883 11.3684 12.7919 11.7152C12.3954 12.062 12.0365 12.1543 11.7769 12.098C11.5175 12.0418 11.3579 11.8368 11.2746 11.707C11.1916 11.5772 11.1853 11.5225 11.2222 11.4836C11.2588 11.4447 11.3386 11.4211 11.5736 11.091C11.8088 10.7609 12.1991 10.124 12.6426 9.16695C13.0863 8.20993 13.5832 6.93279 13.8464 5.85505C14.1099 4.77754 14.1397 3.89943 13.9982 3.34145C13.8568 2.78346 13.5438 2.54515 13.08 2.58806C12.6162 2.63118 12.0015 2.95485 11.115 3.67468ZM143.101 13.7295C142.592 14.4451 142.118 15.265 141.719 16.23C141.321 17.1951 140.997 18.305 140.922 19.2901C140.848 20.2751 141.022 21.1352 141.351 21.7637C141.681 22.3921 142.164 22.7891 142.836 22.9803C143.508 23.1715 144.37 23.1566 145.173 22.8921C145.975 22.6275 146.72 22.1129 147.427 21.4035C147.946 20.884 148.444 20.26 148.922 19.6013C148.891 19.9623 148.891 20.3102 148.927 20.6281C149.001 21.2897 149.227 21.821 149.542 22.2189C149.856 22.6166 150.259 22.881 150.817 23.0139C151.376 23.1468 152.09 23.1488 152.781 22.9376C153.473 22.7267 154.142 22.3023 154.785 21.6947C155.429 21.0872 156.047 20.2962 156.594 19.427C157.14 18.558 157.615 17.6105 157.932 16.6682C158.053 16.3072 158.151 15.9468 158.22 15.5945C158.395 15.5558 158.586 15.4998 158.785 15.4246C159.197 15.2695 159.644 15.0338 160.094 14.725L159.991 14.9451C159.44 16.1198 158.804 17.5183 158.364 18.5229C157.923 19.5275 157.68 20.1379 157.566 20.6286C157.452 21.1192 157.468 21.4902 157.562 21.807C157.656 22.1238 157.829 22.3866 158.048 22.5797C158.268 22.7729 158.533 22.8967 158.803 22.9661C159.072 23.0357 159.346 23.0512 159.482 23.0048C159.595 22.9663 159.736 22.6818 159.797 22.5795C160.07 22.1267 160.601 21.2054 161.337 20.1104C162.072 19.0153 163.012 17.7464 163.911 16.5904C164.698 15.5782 165.454 14.6523 166.094 13.9863L165.591 15.0182C165.026 16.1782 164.359 17.5476 163.904 18.5376C163.449 19.5275 163.206 20.1382 163.092 20.6288C162.978 21.1194 162.994 21.4904 163.088 21.8072C163.182 22.124 163.355 22.3868 163.574 22.58C163.794 22.7731 164.059 22.897 164.314 22.9663C164.568 23.0359 164.812 23.0515 164.934 23.005C165.049 22.961 165.282 22.5575 165.345 22.4577C165.705 21.8939 166.403 20.7915 167.241 19.6604C167.981 18.6598 168.831 17.637 169.547 16.9185L169.354 17.3438C168.917 18.3059 168.43 19.4108 168.202 20.2453C167.974 21.0798 168.005 21.6441 168.155 22.0573C168.304 22.4708 168.571 22.7333 168.886 22.8881C169.2 23.0426 169.562 23.089 169.853 23.0966C170.143 23.1044 170.364 23.0735 170.454 23.0192C170.544 22.9652 170.505 22.8878 170.505 22.606C170.505 22.3239 170.544 21.837 170.654 21.2421C170.764 20.647 170.945 19.9441 171.258 19.0669C171.571 18.1899 172.015 17.1388 172.24 16.401C172.464 15.6632 172.469 15.2381 172.317 14.9329C172.117 14.5285 171.636 14.2773 171.188 14.2684C169.968 14.2444 167.966 17.071 167.284 17.932C167.146 18.1061 167.005 18.2864 166.863 18.47C166.995 18.1696 167.123 17.8789 167.243 17.6088C167.607 16.7898 167.895 16.1613 168.053 15.8161C168.211 15.4711 168.24 15.4093 168.362 15.1407C168.485 14.8724 168.701 14.3976 168.873 13.8712C169.044 13.3447 169.169 12.767 169.062 12.3157C168.954 11.8646 168.612 11.5398 168.259 11.3893C167.323 10.9899 166.624 11.6074 166.033 12.2508C165.529 12.7994 164.737 13.7344 163.905 14.7784C163.082 15.8103 162.22 16.9485 161.44 18.0947C161.545 17.844 161.653 17.5874 161.765 17.3258C162.237 16.2238 162.77 15.0294 163.099 14.1435C163.428 13.2574 163.554 12.6796 163.446 12.2283C163.338 11.7773 162.997 11.4525 162.644 11.302C162.291 11.1513 161.927 11.1746 161.756 11.2093C161.586 11.244 161.61 11.2904 161.594 11.4025C161.548 11.7279 161.002 12.4208 160.821 12.6391C160.442 13.0971 159.888 13.6417 159.361 14.0261C158.994 14.2942 158.64 14.484 158.335 14.6141C158.341 14.3973 158.333 14.187 158.308 13.9852C158.099 12.253 156.718 11.2211 154.983 11.1988C153.404 11.1786 151.932 11.9166 150.916 13.0024C150.488 13.4601 150.168 14.1424 150.065 14.5198C149.961 14.8973 150.01 15.2085 150.184 15.5249C150.208 15.5682 150.234 15.6118 150.263 15.6552C149.769 16.5377 149.162 17.4176 148.566 18.2288C147.937 19.0842 147.211 19.9225 146.565 20.4958C145.918 21.0694 145.35 21.378 144.906 21.3595C144.461 21.3413 144.139 20.9958 143.989 20.4996C143.839 20.0034 143.861 19.3565 144.036 18.5625C144.211 17.7684 144.54 16.8269 144.963 15.9266C145.387 15.0262 145.905 14.1664 146.418 13.6813C146.931 13.1965 147.437 13.0862 147.734 13.2443C148.031 13.4023 148.119 13.8287 148.046 14.3396C147.973 14.8504 147.74 15.446 147.534 15.8979C147.329 16.3501 147.151 16.6589 147.039 16.8351C146.926 17.0117 146.879 17.0557 146.934 17.1181C146.988 17.1806 147.142 17.2615 147.36 17.2909C147.578 17.3202 147.858 17.2984 148.146 17.0226C148.434 16.7469 148.729 16.2176 148.971 15.5598C149.212 14.902 149.399 14.1155 149.264 13.4243C149.13 12.7334 148.675 12.1378 148.161 11.7777C147.647 11.4176 147.074 11.2926 146.487 11.3342C145.9 11.376 145.298 11.5843 144.725 11.994C144.152 12.4037 143.609 13.0146 143.1 13.7302L143.101 13.7295ZM128.393 12.8241C128.307 12.6903 128.207 12.5556 128.091 12.4268C127.735 12.0334 127.228 11.6981 126.723 11.5112C126.217 11.3242 125.713 11.2853 125.171 11.3749C124.629 11.4645 124.049 11.6828 123.436 12.084C122.824 12.4853 122.178 13.0697 121.62 13.7905C121.062 14.5112 120.592 15.3686 120.201 16.2334C119.81 17.0984 119.498 17.9711 119.334 18.7932C119.196 19.4895 119.165 20.1495 119.221 20.7233C118.689 21.1721 118.21 21.4071 117.827 21.3539C117.409 21.2959 117.106 20.8942 117.071 20.2373C117.036 19.5806 117.268 18.6687 117.581 17.7655C117.894 16.8623 118.289 15.9677 118.648 15.1496C119.007 14.3315 119.331 13.5897 119.417 13.0488C119.503 12.508 119.351 12.1679 119.113 11.8975C118.153 10.8071 116.999 11.3544 116.215 12.2121C115.754 12.7169 115.043 13.5644 114.209 14.6521C113.481 15.6016 112.659 16.7342 111.92 17.8364L112.023 17.5939C112.495 16.4919 113.028 15.2975 113.357 14.4116C113.686 13.5255 113.812 12.9477 113.704 12.4964C113.596 12.0454 113.255 11.7206 112.902 11.5701C112.549 11.4194 112.185 11.4427 112.014 11.4774C111.844 11.5121 111.868 11.5585 111.852 11.6706C111.761 12.3226 110.772 13.9094 110.421 14.4694C109.849 15.3855 109.196 16.3439 108.594 17.1597C107.992 17.9758 107.439 18.6498 106.924 19.1925C106.409 19.7351 105.931 20.1462 105.527 20.3056C105.123 20.4649 104.793 20.372 104.665 20.0815C104.537 19.7909 104.611 19.3023 104.8 18.6932C104.988 18.0841 105.291 17.3542 105.646 16.5851C106.001 15.8159 106.408 15.0071 106.7 14.3902C106.991 13.7733 107.167 13.3483 107.151 12.9735C107.134 12.5987 106.926 12.2741 106.63 12.0385C106.335 11.8028 105.953 11.6561 105.683 11.5787C105.413 11.5014 105.255 11.4936 105.185 11.5092C105.116 11.5247 105.135 11.5634 105.118 11.687C105.101 11.8106 105.048 12.0194 104.801 12.5182C104.555 13.0171 104.114 13.806 103.626 14.7415C103.138 15.6769 102.601 16.7587 102.228 17.6706C102.054 18.0929 101.916 18.4791 101.809 18.8399L101.743 18.9168C101.242 19.4986 100.595 20.1366 100.012 20.4478C99.429 20.7591 98.9104 20.7437 98.6314 20.4694C98.3523 20.1951 98.313 19.662 98.4701 18.9317C98.6273 18.2014 98.981 17.2742 99.6414 15.775C100.301 14.276 101.268 12.205 102.063 10.483L102.174 10.2429C102.522 10.2411 102.849 10.2349 103.131 10.2227C104.264 10.1733 104.692 10.0246 104.963 9.75606C105.234 9.48752 105.348 9.09937 105.404 8.8704C105.46 8.64142 105.458 8.57184 105.384 8.54872C105.309 8.5256 105.162 8.54872 104.821 8.5565C104.48 8.56429 103.945 8.5565 103.062 8.5525L102.947 8.55206C103.326 7.71686 103.632 7.02171 103.851 6.49307C104.221 5.59807 104.339 5.1808 104.304 4.80199C104.269 4.42341 104.08 4.08328 103.785 3.84386C103.49 3.60421 103.09 3.46527 102.831 3.39169C102.573 3.31833 102.457 3.31055 102.395 3.3579C102.333 3.40525 102.325 3.50773 102.27 3.68046C102.215 3.85342 102.113 4.09684 101.831 4.72241C101.55 5.34797 101.09 6.35546 100.576 7.45632C100.412 7.80756 100.243 8.16858 100.065 8.54583L99.9982 8.54561C99.0477 8.54272 98.3776 8.53694 97.9059 8.62586C97.4341 8.71479 97.1612 8.89819 97.0108 9.16584C96.8604 9.4335 96.833 9.78496 96.8281 9.98593C96.8231 10.1869 96.841 10.2371 96.8821 10.2429C96.9233 10.2487 96.9882 10.21 97.2329 10.1907C97.4776 10.1713 97.902 10.1713 99.0326 10.1964L99.2886 10.2022C99.1327 10.5352 98.9706 10.8831 98.8008 11.2495C97.6259 13.7822 97.1055 14.8533 95.4026 17.1599C94.8002 17.976 94.2475 18.65 93.7323 19.1927C93.2174 19.7353 92.74 20.1464 92.3361 20.3058C91.9322 20.4652 91.602 20.3722 91.474 20.0817C91.346 19.7911 91.4202 19.3025 91.6088 18.6934C91.7971 18.0843 92.0995 17.3545 92.4543 16.5853C92.8094 15.8161 93.2167 15.0074 93.5084 14.3905C93.8001 13.7736 93.9759 13.3485 93.9594 12.9737C93.9428 12.5989 93.7343 12.2743 93.439 12.0387C93.1436 11.803 92.7617 11.6563 92.4914 11.579C92.2216 11.5016 92.0636 11.4938 91.9941 11.5094C91.9247 11.5249 91.9437 11.5636 91.9267 11.6872C91.91 11.8108 91.8571 12.0196 91.6101 12.5184C91.3634 13.0173 90.9229 13.8062 90.4346 14.7417C89.9463 15.6772 89.4101 16.7589 89.0363 17.6708C88.7588 18.3482 88.5707 18.9315 88.4585 19.4686C87.8626 20.0757 87.3264 20.5719 86.8454 20.8584C86.3524 21.1523 85.9177 21.2257 85.6832 21.0641C85.4487 20.9027 85.4143 20.5061 85.5328 19.9994C85.6515 19.4928 85.9229 18.8761 86.2825 18.1127C86.6421 17.3496 87.0898 16.4397 87.3612 15.7719C87.6326 15.1041 87.7276 14.6781 87.5844 14.3604C87.4413 14.0428 87.0602 13.8331 86.773 13.5868C86.4858 13.3405 86.2922 13.0573 86.2515 12.7616C86.1075 11.7152 88.304 9.97348 88.9972 9.21631C89.1697 9.02801 89.1449 9.05669 89.0931 8.87196C88.9364 8.3133 88.1788 7.77755 87.6224 7.71419C87.2945 7.67684 86.9087 7.73709 86.5213 7.97295C86.1341 8.20882 85.7456 8.62053 85.348 9.1485C84.9503 9.6767 84.5436 10.3212 84.3292 10.7942C84.1149 11.2675 84.0929 11.5692 84.1239 11.8817C84.1526 12.1716 84.227 12.4704 84.4444 12.7378C84.0167 13.2016 83.63 13.6308 83.2792 14.0448C82.722 14.7024 82.2552 15.3217 81.9818 15.7883C81.7086 16.2549 81.6286 16.5688 81.6175 16.8358C81.6066 17.103 81.6645 17.3233 81.8043 17.4756C81.9443 17.6279 82.1659 17.7121 82.2799 17.7175C82.3939 17.7228 82.4 17.6492 82.4916 17.444C82.5831 17.2391 82.7602 16.903 83.1146 16.3399C83.469 15.777 84.0006 14.9869 84.8673 13.9014C84.9851 13.7538 85.1092 13.6006 85.2377 13.4441C85.6491 13.8698 85.3797 14.3238 85.1276 14.7715C84.8051 15.3441 84.249 16.174 83.7067 17.099C83.1646 18.0243 82.6363 19.0451 82.3681 19.8489C82.0996 20.653 82.0913 21.2406 82.2086 21.7581C82.326 22.2758 82.5694 22.7238 83.0099 22.9808C83.4507 23.2378 84.0888 23.304 84.6877 23.2202C85.2865 23.1366 85.846 22.9034 86.4313 22.5215C87.0168 22.1396 87.6279 21.6094 88.2884 20.9367L88.333 20.8911C88.3486 21.2383 88.4008 21.5587 88.4859 21.8399C88.6394 22.3461 88.8997 22.7247 89.2032 22.9641C89.5067 23.2037 89.8536 23.3042 90.2682 23.2809C90.6827 23.2578 91.1655 23.1108 91.742 22.7747C92.3184 22.4386 92.9887 21.9133 93.7018 21.1328C94.2665 20.5147 94.8578 19.7367 95.4985 18.8254C95.3965 19.1216 95.3113 19.3985 95.2437 19.658C94.9976 20.6032 94.9897 21.3142 95.0996 21.8435C95.2097 22.3728 95.4377 22.7205 95.7914 22.9639C96.1453 23.2073 96.6248 23.3465 97.2442 23.3064C97.8636 23.2664 98.6226 23.0472 99.4396 22.4813C100.121 22.0089 100.844 21.2948 101.52 20.5568C101.51 21.0334 101.565 21.4707 101.677 21.8401C101.831 22.3463 102.091 22.7249 102.394 22.9643C102.698 23.204 103.045 23.3045 103.459 23.2811C103.874 23.258 104.357 23.111 104.933 22.7749C105.51 22.4388 106.18 21.9135 106.893 21.133C107.393 20.5854 107.914 19.9121 108.473 19.132C108.124 19.9392 107.923 20.4652 107.822 20.898C107.708 21.3886 107.724 21.7597 107.819 22.0764C107.913 22.3932 108.086 22.656 108.305 22.8492C108.524 23.0424 108.79 23.1662 109.059 23.2355C109.329 23.3051 109.602 23.3207 109.739 23.2742C109.85 23.2366 109.983 22.9532 110.043 22.8489C110.304 22.3961 110.811 21.4749 111.576 20.2922C112.341 19.1096 113.362 17.6655 114.26 16.4657C115.158 15.2659 115.932 14.3102 116.578 13.6817C116.616 13.6448 116.653 13.6091 116.69 13.5744C116.4 14.1566 115.987 14.9095 115.584 15.7272C115.026 16.8623 114.489 18.1216 114.195 19.1687C113.901 20.2157 113.85 21.0505 114.021 21.7072C114.192 22.3641 114.585 22.8432 115.135 23.0982C115.685 23.3531 116.393 23.384 117.056 23.2333C117.718 23.0826 118.336 22.7505 118.979 22.2558C119.145 22.1276 119.314 21.9886 119.481 21.8408C119.594 22.1122 119.739 22.3454 119.917 22.5393C120.254 22.9056 120.707 23.1315 121.234 23.2289C121.762 23.3265 122.363 23.2953 122.928 23.0459C123.372 22.8498 123.793 22.5193 124.193 22.0669C124.059 22.4086 123.923 22.7485 123.787 23.0824C123.17 23.4423 122.568 23.7662 122.044 24.0447C120.916 24.6447 120.147 25.036 119.558 25.401C118.073 26.3222 117.006 27.8137 117.223 29.6237C117.308 30.3342 117.645 31.0258 118.058 31.5449C118.565 32.1815 119.355 32.6448 120.186 32.7284C121.016 32.812 121.888 32.5157 122.569 31.9197C123.25 31.3234 123.74 30.4273 124.366 28.9897C124.991 27.552 125.752 25.5726 126.436 23.7491C126.63 23.2318 126.818 22.7271 126.998 22.2383C128.02 21.3864 129.013 20.372 129.823 19.3428C130.716 18.2077 131.388 17.0546 131.925 16.17C132.252 15.6316 132.529 15.1928 132.794 14.8248C132.795 14.9776 132.796 15.139 132.797 15.3101C132.802 15.9997 132.803 16.8492 132.728 17.5854C132.654 18.3219 132.505 18.9453 132.286 19.485C132.066 20.0248 131.777 20.481 131.421 20.8471C131.065 21.2134 130.643 21.49 130.291 21.5954C129.94 21.7005 129.658 21.6343 129.477 21.5622C129.296 21.4902 129.216 21.4122 129.192 21.4882C129.168 21.5642 129.2 21.7941 129.331 22.0842C129.461 22.3743 129.69 22.7249 130.101 22.9723C130.511 23.22 131.104 23.3645 131.73 23.3471C132.355 23.3298 133.014 23.1506 133.596 22.7422C134.178 22.3341 134.684 21.6967 135.012 21.0049C135.34 20.3131 135.49 19.5666 135.509 18.7883C135.527 18.01 135.414 17.1995 135.274 16.1942C135.131 15.1587 134.956 14.0712 134.892 13.0299C135.161 12.9061 135.384 12.8383 135.543 12.8034C135.755 12.7567 135.854 12.7683 135.906 12.7527C135.958 12.7372 135.962 12.6943 135.939 12.5598C135.916 12.4255 135.865 12.1994 135.739 11.9793C135.612 11.7593 135.409 11.545 135.121 11.43C134.832 11.3151 134.457 11.2995 134.087 11.3744C133.717 11.4494 133.352 11.6148 132.988 12.0042C132.624 12.3939 132.261 13.0077 131.876 13.724C131.49 14.4403 131.083 15.259 130.606 16.1022C130.128 16.9456 129.579 17.814 128.825 18.7721C128.532 19.1436 128.209 19.5286 127.851 19.915L128.221 18.8984C128.716 17.5385 129.099 16.4866 129.445 15.606C129.792 14.7255 130.101 14.0163 130.272 13.6433C130.443 13.27 130.475 13.2329 130.486 13.1782C130.497 13.1238 130.488 13.052 130.314 12.9281C130.141 12.8043 129.804 12.6285 129.431 12.5836C129.096 12.5431 128.732 12.608 128.392 12.8261L128.393 12.8241ZM124.553 19.9903C124.146 20.5679 123.736 20.9358 123.383 21.0465C123.029 21.1574 122.731 21.0109 122.55 20.6377C122.369 20.2646 122.303 19.6644 122.381 18.9342C122.46 18.2039 122.682 17.3431 123.044 16.5077C123.406 15.6723 123.908 14.8617 124.432 14.2811C124.957 13.7006 125.503 13.3501 126.033 13.2294C126.563 13.1084 127.077 13.2176 127.381 13.389C127.5 13.4559 127.586 13.5321 127.657 13.6128C127.502 13.8511 127.342 14.1415 127.171 14.4954C126.284 16.3287 125.749 18.2932 124.553 19.9903ZM120.389 26.4318C121.058 25.9719 122.015 25.4435 123.023 24.8701C122.37 26.3205 121.742 27.5102 121.228 28.3101C120.889 28.8374 120.588 29.1833 120.339 29.4301C119.822 29.9423 118.868 30.021 118.824 28.939C118.782 27.9004 119.589 26.982 120.389 26.4318ZM138.229 19.4877C139.024 19.4877 139.524 20.2615 139.346 21.2163C139.168 22.1711 138.38 22.9452 137.585 22.9452C136.791 22.9452 136.29 22.1714 136.468 21.2163C136.646 20.2615 137.434 19.4877 138.229 19.4877ZM108.19 6.94968C108.984 6.94968 109.402 7.84224 109.124 8.94332C108.845 10.0444 107.974 10.9369 107.18 10.9369C106.385 10.9369 105.967 10.0444 106.246 8.94332C106.524 7.84224 107.395 6.94968 108.19 6.94968ZM94.9985 6.94968C95.7932 6.94968 96.2114 7.84224 95.9325 8.94332C95.6537 10.0444 94.7832 10.9369 93.9885 10.9369C93.1938 10.9369 92.7757 10.0444 93.0545 8.94332C93.3334 7.84224 94.2036 6.94968 94.9985 6.94968ZM75.4454 9.7156C74.9753 10.1522 74.4759 10.8013 74.0227 11.5507C73.5695 12.3003 73.1622 13.1504 72.8619 13.9539C72.5616 14.7575 72.3682 15.5147 72.2504 16.2256C72.1866 16.6104 72.145 16.9819 72.1294 17.3605C71.5054 18.0894 70.905 18.6434 70.41 18.9651C69.7716 19.3801 69.3084 19.4094 69.0368 19.1767C68.7654 18.9439 68.6858 18.4495 68.7349 17.8004C68.784 17.1513 68.9619 16.3476 69.2403 15.4111C69.519 14.4743 69.8982 13.4045 70.4061 12.2168C70.9143 11.029 71.5514 9.72316 72.1366 8.65676C72.7221 7.59037 73.2558 6.76361 73.6717 6.1685C74.0878 5.57339 74.3861 5.21037 74.5974 4.9785C74.8086 4.74664 74.9325 4.64616 75.0065 4.5768C75.0804 4.50722 75.1042 4.46876 75.0275 4.35672C74.6749 3.84208 73.8294 3.69514 73.2457 3.73849C72.7787 3.77316 72.2861 3.92767 71.7707 4.33337C71.2551 4.73908 70.7166 5.39599 70.0861 6.37947C69.4556 7.36295 68.7329 8.67344 68.0458 10.1415C67.3588 11.6096 66.7077 13.2358 66.2072 14.7288C65.7068 16.2218 65.3571 17.5819 65.1787 18.7256C65.0005 19.8694 64.9935 20.7966 65.1434 21.496C65.2934 22.1954 65.6007 22.6667 65.9983 22.9332C66.3961 23.1997 66.8845 23.2615 67.3554 23.2153C67.8262 23.1691 68.2794 23.0143 68.8548 22.6551C69.4301 22.2959 70.1275 21.7316 70.87 20.9976C71.3356 20.5372 71.8187 20.0101 72.2988 19.453C72.3802 19.8634 72.4908 20.2691 72.6321 20.6383C72.9012 21.3415 73.2816 21.9135 73.6803 22.3192C74.079 22.7249 74.4956 22.9643 74.9196 23.1066C75.3434 23.2487 75.7745 23.2933 76.0296 23.2718C76.2849 23.2502 76.3643 23.1626 76.7026 22.4541C77.0409 21.7456 77.6382 20.4167 78.5055 18.6789C79.3727 16.9414 80.5098 14.7951 81.5795 13.0282C82.6494 11.2613 83.6519 9.87388 84.7028 8.63987C85.7538 7.40608 86.8526 6.32589 87.8694 5.54227C88.8862 4.75887 89.8208 4.27202 90.6501 3.93989C91.4796 3.60799 92.2038 3.43104 92.6273 3.35768C93.0509 3.28432 93.1737 3.31455 93.1321 3.07846C93.0903 2.84237 92.884 2.34019 92.5059 1.91514C92.128 1.49009 91.5782 1.14241 90.9199 0.995684C90.2616 0.84874 89.4949 0.902983 88.6107 1.26223C87.7267 1.62147 86.7253 2.28594 85.6947 3.28498C84.6642 4.28402 83.604 5.61763 82.6037 7.0386C81.6035 8.45958 80.6627 9.96792 79.6584 11.8206C78.6543 13.6733 77.5868 15.8703 76.9312 17.1928C76.2756 18.5153 76.0323 18.9637 75.7756 19.122C75.5189 19.2805 75.2493 19.1489 75.0361 18.8034C74.8231 18.458 74.6663 17.8982 74.551 17.3593C74.5067 17.1522 74.4685 16.9481 74.4361 16.7607C74.7324 16.3554 75.0275 15.9364 75.3251 15.4958C76.0488 14.4256 76.7892 13.2296 77.31 12.2683C77.8308 11.3071 78.1325 10.5808 78.1739 10.0437C78.2155 9.50664 77.9971 9.15895 77.6796 8.98889C76.9713 8.60964 75.9642 9.23387 75.4454 9.7156ZM36.109 8.55295L37.2194 8.56495C37.4001 8.18059 37.5724 7.81356 37.7393 7.45609C38.2531 6.35524 38.7136 5.34775 38.9949 4.72219C39.2762 4.09662 39.3784 3.85319 39.4334 3.68024C39.4884 3.50729 39.4963 3.40503 39.5582 3.35768C39.6202 3.31033 39.736 3.31811 39.9945 3.39147C40.253 3.46483 40.6537 3.60399 40.9486 3.84364C41.2435 4.08328 41.4321 4.42318 41.4674 4.80177C41.5027 5.18036 41.3848 5.59762 41.0144 6.49285C40.7935 7.02704 40.4825 7.73131 40.099 8.57829C41.0809 8.57473 41.9878 8.56317 42.6857 8.56006C43.5149 8.55628 44.0496 8.56406 44.3906 8.55628C44.7316 8.5485 44.8791 8.52516 44.9537 8.5485C45.0283 8.57162 45.0304 8.6412 44.9743 8.87018C44.9182 9.09915 44.8042 9.4873 44.5331 9.75584C44.2619 10.0244 43.8336 10.1731 42.841 10.2147C41.9746 10.2509 40.6788 10.2056 39.3674 10.1767L39.2262 10.4826C38.4316 12.2045 37.4645 14.2755 36.8042 15.7745C36.1438 17.2738 35.7901 18.201 35.633 18.9313C35.4758 19.6615 35.5151 20.1946 35.7942 20.4689C36.0733 20.7433 36.5921 20.7588 37.1748 20.4474C37.6326 20.2031 38.1299 19.7571 38.5654 19.2952C38.6025 19.0611 38.6516 18.825 38.7115 18.5907C38.9087 17.8206 39.2238 17.0726 39.5429 16.4223C39.6428 16.2187 39.743 16.0246 39.8457 15.8406C39.8174 15.7974 39.7912 15.7539 39.7672 15.7103C39.5928 15.3939 39.5442 15.0827 39.6478 14.7052C39.7514 14.3278 40.0709 13.6455 40.499 13.1878C41.5151 12.102 42.9867 11.3638 44.5659 11.3842C46.3007 11.4067 47.6822 12.4386 47.8912 14.1706C47.9156 14.3725 47.9237 14.583 47.9176 14.7995C48.2227 14.6697 48.5766 14.4796 48.9437 14.2115C49.4704 13.8271 50.0247 13.2823 50.4039 12.8245C50.5848 12.606 51.1314 11.9131 51.1771 11.5879C51.1929 11.4758 51.1692 11.4294 51.3395 11.3947C51.51 11.36 51.8741 11.3367 52.2269 11.4874C52.5797 11.6381 52.9214 11.9627 53.0293 12.4137C53.1371 12.865 53.0114 13.4428 52.6819 14.3289C52.3526 15.215 51.8198 16.4094 51.3481 17.5112C51.2502 17.7399 51.1549 17.9645 51.0622 18.185L51.0692 18.1745C51.9313 16.8687 52.9526 15.4235 53.859 14.2335C54.7656 13.0435 55.5578 12.1085 56.0615 11.5598C56.5653 11.0112 56.7809 10.8489 56.9959 10.7522C57.2108 10.6557 57.4254 10.6248 57.6215 10.6286C58.2497 10.6411 58.8569 11.1103 59.001 11.7123C59.1088 12.1636 58.9831 12.7414 58.8119 13.2678C58.6407 13.7942 58.4238 14.2691 58.3015 14.5374C58.1789 14.8057 58.1509 14.8675 57.9333 15.3441C57.7158 15.8208 57.3092 16.712 56.8856 17.6626C56.7404 17.9885 56.5932 18.3213 56.4473 18.6538C56.5889 18.4706 56.7295 18.291 56.867 18.1172C57.8558 16.8685 58.6776 15.9335 59.1961 15.3848C59.8499 14.6935 61.2414 13.7869 61.9002 15.1181C62.0513 15.4233 62.047 15.8483 61.8224 16.5862C61.5981 17.3242 61.1532 18.3751 60.8407 19.252C60.5279 20.129 60.3472 20.8322 60.2371 21.4273C60.1272 22.0224 60.0878 22.5093 60.0878 22.7911C60.0878 23.0733 60.1272 23.1504 60.0367 23.2044C59.9463 23.2587 59.7262 23.2893 59.4354 23.2818C59.1446 23.274 58.783 23.2278 58.4686 23.0733C58.1543 22.9188 57.887 22.656 57.7375 22.2425C57.588 21.8292 57.5568 21.265 57.7845 20.4305C58.0125 19.596 58.4998 18.4911 58.9363 17.529L59.1299 17.1037C58.4139 17.8222 57.5642 18.8452 56.8234 19.8456C55.986 20.9767 55.2878 22.0791 54.9283 22.6429C54.8647 22.7427 54.632 23.1462 54.5167 23.1902C54.3948 23.2366 54.1512 23.2211 53.8966 23.1515C53.6419 23.0819 53.3764 22.9583 53.157 22.7651C52.9379 22.572 52.7649 22.3092 52.6706 21.9924C52.5763 21.6756 52.5605 21.3046 52.6744 20.814C52.7884 20.3233 53.0322 19.7129 53.5467 18.5914C54.0612 17.4701 54.8466 15.8377 55.471 14.5463L56.0291 13.3934C55.4079 14.0543 54.6765 14.96 53.8651 16.0455C52.8918 17.3476 51.8033 18.9086 50.9935 20.1497C50.1836 21.3908 49.6529 22.3121 49.3799 22.7649C49.3184 22.8672 49.178 23.1517 49.0649 23.1902C48.9283 23.2366 48.6549 23.2211 48.3853 23.1515C48.116 23.0819 47.8502 22.9583 47.6311 22.7651C47.4119 22.572 47.2389 22.3092 47.1446 21.9924C47.0503 21.6756 47.0345 21.3046 47.1485 20.814C47.2625 20.3233 47.5063 19.7129 47.9463 18.7083C48.3867 17.7037 49.0233 16.3052 49.5735 15.1305L49.6768 14.9104C49.2273 15.2192 48.7797 15.4551 48.3681 15.61C48.1691 15.6852 47.9782 15.7412 47.8027 15.7799C47.7335 16.1322 47.6356 16.4924 47.5144 16.8536C47.198 17.7957 46.7231 18.7434 46.1765 19.6124C45.6299 20.4816 45.0118 21.2726 44.3682 21.8801C43.7246 22.4877 43.0556 22.9121 42.3641 23.123C41.6725 23.3342 40.9583 23.3325 40.4 23.1993C39.8416 23.0664 39.4391 22.802 39.1245 22.4043C38.7432 21.9224 38.5654 21.3519 38.5032 20.7508C37.8798 21.418 37.2248 22.0491 36.6031 22.4797C35.7861 23.0457 35.0271 23.2649 34.4077 23.3049C33.7885 23.3449 33.3088 23.206 32.9549 22.9623C32.6012 22.7189 32.3732 22.3712 32.2631 21.8419C32.1532 21.3126 32.1611 20.6017 32.4072 19.6564C32.6532 18.7112 33.1374 17.5316 33.7912 16.0404C34.445 14.5494 35.2684 12.7467 35.9636 11.2484C36.142 10.864 36.3119 10.4997 36.4747 10.1518C35.8817 10.1538 35.3519 10.1591 34.9271 10.1624C33.9956 10.1702 33.5712 10.1702 33.3265 10.1896C33.0818 10.2089 33.0171 10.2476 32.9757 10.2418C32.9345 10.236 32.9167 10.1858 32.9217 9.98482C32.9266 9.78385 32.954 9.43239 33.1044 9.16473C33.2548 8.89708 33.5277 8.71367 33.9995 8.62475C34.4712 8.53583 35.1411 8.54228 36.109 8.55295ZM155.527 16.0898C155.119 17.2086 154.372 18.4882 153.764 19.3448C153.157 20.2013 152.689 20.635 152.335 20.7851C151.982 20.9353 151.742 20.8026 151.612 20.5472C151.482 20.292 151.46 19.9145 151.527 19.4299C151.593 18.9455 151.748 18.3544 151.988 17.7093C152.229 17.0641 152.556 16.3652 152.864 15.8334C153.172 15.3017 153.46 14.9369 153.612 14.709C153.764 14.4812 153.778 14.3905 153.538 14.2144C153.346 14.0728 152.988 13.876 152.607 13.8205C152.633 13.7896 152.66 13.7591 152.687 13.7293C153.031 13.3483 153.432 13.0651 153.788 12.8728C154.197 12.652 154.894 12.3735 155.367 12.6736C156.323 13.2798 155.77 15.4253 155.527 16.0898ZM45.1102 16.2752C44.7016 17.394 43.9546 18.6736 43.3469 19.5302C42.7395 20.3867 42.2716 20.8204 41.9179 20.9705C41.5644 21.1207 41.3251 20.988 41.1949 20.7326C41.0646 20.4774 41.0429 20.0999 41.1094 19.6153C41.1759 19.1309 41.3303 18.5398 41.5712 17.8947C41.812 17.2495 42.1388 16.5506 42.4466 16.0188C42.7544 15.4871 43.0432 15.1223 43.1947 14.8944C43.3465 14.6666 43.3609 14.5759 43.1212 14.3998C42.9285 14.2582 42.571 14.0614 42.1895 14.0059C42.2157 13.975 42.2424 13.9445 42.2693 13.9147C42.789 13.3407 44.1678 12.363 44.9496 12.8588C45.9058 13.465 45.3528 15.6108 45.1102 16.2752Z" fill="#9766FF"/>
</g>
</g>
</g>
<defs>
<filter id="filter0_d_65_2" x="-1.99902" y="0.5" width="176.42" height="36.2422" filterUnits="userSpaceOnUse" color-interpolation-filters="sRGB">
<feFlood flood-opacity="0" result="BackgroundImageFix"/>
<feColorMatrix in="SourceAlpha" type="matrix" values="0 0 0 0 0 0 0 0 0 0 0 0 0 0 0 0 0 0 127 0" result="hardAlpha"/>
<feOffset dy="2"/>
<feGaussianBlur stdDeviation="1"/>
<feComposite in2="hardAlpha" operator="out"/>
<feColorMatrix type="matrix" values="0 0 0 0 0 0 0 0 0 0 0 0 0 0 0 0 0 0 0.1 0"/>
<feBlend mode="normal" in2="BackgroundImageFix" result="effect1_dropShadow_65_2"/>
<feBlend mode="normal" in="SourceGraphic" in2="effect1_dropShadow_65_2" result="shape"/>
</filter>
<clipPath id="clip0_65_2">
<rect width="173" height="48" fill="white"/>
</clipPath>
</defs>
</svg>
