<svg width="173" height="48" viewBox="0 0 173 48" fill="none" xmlns="http://www.w3.org/2000/svg">
<rect y="29.5" width="172" height="18" rx="4.60702" fill="#E4F2F2"/>
<path d="M6.748 42.5V34.8H11.775V35.933H8.156V38.045H11.445V39.145H8.156V41.367H11.775V42.5H6.748ZM17.2364 42.632C16.6717 42.632 16.173 42.5367 15.7404 42.346C15.3077 42.148 14.9667 41.8693 14.7174 41.51C14.468 41.1433 14.3397 40.6997 14.3324 40.179H15.8174C15.832 40.5383 15.9604 40.8427 16.2024 41.092C16.4517 41.334 16.7927 41.455 17.2254 41.455C17.5994 41.455 17.8964 41.367 18.1164 41.191C18.3364 41.0077 18.4464 40.7657 18.4464 40.465C18.4464 40.1497 18.3474 39.904 18.1494 39.728C17.9587 39.552 17.702 39.409 17.3794 39.299C17.0567 39.189 16.712 39.0717 16.3454 38.947C15.7514 38.7417 15.2967 38.4777 14.9814 38.155C14.6734 37.8323 14.5194 37.4033 14.5194 36.868C14.512 36.4133 14.6184 36.0247 14.8384 35.702C15.0657 35.372 15.3737 35.119 15.7624 34.943C16.151 34.7597 16.5984 34.668 17.1044 34.668C17.6177 34.668 18.0687 34.7597 18.4574 34.943C18.8534 35.1263 19.1614 35.383 19.3814 35.713C19.6087 36.043 19.7297 36.4353 19.7444 36.89H18.2374C18.23 36.6187 18.1237 36.3803 17.9184 36.175C17.7204 35.9623 17.4417 35.856 17.0824 35.856C16.7744 35.8487 16.514 35.9257 16.3014 36.087C16.096 36.241 15.9934 36.4683 15.9934 36.769C15.9934 37.0257 16.074 37.231 16.2354 37.385C16.3967 37.5317 16.6167 37.6563 16.8954 37.759C17.174 37.8617 17.493 37.9717 17.8524 38.089C18.2337 38.221 18.582 38.375 18.8974 38.551C19.2127 38.727 19.4657 38.9617 19.6564 39.255C19.847 39.541 19.9424 39.9113 19.9424 40.366C19.9424 40.7693 19.8397 41.1433 19.6344 41.488C19.429 41.8327 19.1247 42.1113 18.7214 42.324C18.318 42.5293 17.823 42.632 17.2364 42.632ZM25.2999 42.632C24.7352 42.632 24.2365 42.5367 23.8039 42.346C23.3712 42.148 23.0302 41.8693 22.7809 41.51C22.5315 41.1433 22.4032 40.6997 22.3959 40.179H23.8809C23.8955 40.5383 24.0239 40.8427 24.2659 41.092C24.5152 41.334 24.8562 41.455 25.2889 41.455C25.6629 41.455 25.9599 41.367 26.1799 41.191C26.3999 41.0077 26.5099 40.7657 26.5099 40.465C26.5099 40.1497 26.4109 39.904 26.2129 39.728C26.0222 39.552 25.7655 39.409 25.4429 39.299C25.1202 39.189 24.7755 39.0717 24.4089 38.947C23.8149 38.7417 23.3602 38.4777 23.0449 38.155C22.7369 37.8323 22.5829 37.4033 22.5829 36.868C22.5755 36.4133 22.6819 36.0247 22.9019 35.702C23.1292 35.372 23.4372 35.119 23.8259 34.943C24.2145 34.7597 24.6619 34.668 25.1679 34.668C25.6812 34.668 26.1322 34.7597 26.5209 34.943C26.9169 35.1263 27.2249 35.383 27.4449 35.713C27.6722 36.043 27.7932 36.4353 27.8079 36.89H26.3009C26.2935 36.6187 26.1872 36.3803 25.9819 36.175C25.7839 35.9623 25.5052 35.856 25.1459 35.856C24.8379 35.8487 24.5775 35.9257 24.3649 36.087C24.1595 36.241 24.0569 36.4683 24.0569 36.769C24.0569 37.0257 24.1375 37.231 24.2989 37.385C24.4602 37.5317 24.6802 37.6563 24.9589 37.759C25.2375 37.8617 25.5565 37.9717 25.9159 38.089C26.2972 38.221 26.6455 38.375 26.9609 38.551C27.2762 38.727 27.5292 38.9617 27.7199 39.255C27.9105 39.541 28.0059 39.9113 28.0059 40.366C28.0059 40.7693 27.9032 41.1433 27.6979 41.488C27.4925 41.8327 27.1882 42.1113 26.7849 42.324C26.3815 42.5293 25.8865 42.632 25.2999 42.632ZM30.2393 42.5L33.0553 34.8H34.6393L37.4553 42.5H35.9593L35.3433 40.718H32.3403L31.7133 42.5H30.2393ZM32.7253 39.618H34.9583L33.8363 36.417L32.7253 39.618ZM41.0466 42.5V39.761L38.4616 34.8H40.0566L41.7616 38.353L43.4556 34.8H45.0286L42.4546 39.761V42.5H41.0466ZM53.1137 42.5L51.0787 34.8H52.5857L53.9717 40.927L55.5997 34.8H57.1507L58.7347 40.927L60.1207 34.8H61.6387L59.5487 42.5H57.8767L56.3477 36.791L54.7747 42.5H53.1137ZM64.1591 42.5V34.8H66.9861C67.6021 34.8 68.1081 34.9063 68.5041 35.119C68.9075 35.3243 69.2081 35.6067 69.4061 35.966C69.6041 36.318 69.7031 36.7103 69.7031 37.143C69.7031 37.6123 69.5785 38.0413 69.3291 38.43C69.0871 38.8187 68.7058 39.101 68.1851 39.277L69.7801 42.5H68.1631L66.7331 39.464H65.5671V42.5H64.1591ZM65.5671 38.43H66.8981C67.3675 38.43 67.7121 38.3163 67.9321 38.089C68.1521 37.8617 68.2621 37.561 68.2621 37.187C68.2621 36.8203 68.1521 36.527 67.9321 36.307C67.7195 36.087 67.3711 35.977 66.8871 35.977H65.5671V38.43ZM72.5126 42.5V34.8H73.9206V42.5H72.5126ZM78.706 42.5V35.933H76.462V34.8H82.369V35.933H80.114V42.5H78.706ZM84.9121 42.5V34.8H86.3201V42.5H84.9121ZM89.3125 42.5V34.8H90.7205L94.3395 40.223V34.8H95.7475V42.5H94.3395L90.7205 37.088V42.5H89.3125ZM102.106 42.632C101.38 42.632 100.746 42.467 100.203 42.137C99.6605 41.807 99.2389 41.3487 98.9382 40.762C98.6375 40.168 98.4872 39.4787 98.4872 38.694C98.4872 37.902 98.6412 37.2053 98.9492 36.604C99.2645 35.9953 99.7082 35.5223 100.28 35.185C100.86 34.8403 101.545 34.668 102.337 34.668C103.239 34.668 103.987 34.8843 104.581 35.317C105.175 35.7497 105.56 36.3473 105.736 37.11H104.163C104.046 36.7507 103.833 36.472 103.525 36.274C103.217 36.0687 102.821 35.966 102.337 35.966C101.567 35.966 100.973 36.2117 100.555 36.703C100.137 37.187 99.9282 37.8543 99.9282 38.705C99.9282 39.5557 100.134 40.2157 100.544 40.685C100.962 41.147 101.527 41.378 102.238 41.378C102.935 41.378 103.459 41.191 103.811 40.817C104.171 40.4357 104.387 39.937 104.46 39.321H102.513V38.265H105.879V42.5H104.581L104.471 41.488C104.222 41.8547 103.91 42.137 103.536 42.335C103.162 42.533 102.686 42.632 102.106 42.632ZM115.498 42.632C114.933 42.632 114.435 42.5367 114.002 42.346C113.569 42.148 113.228 41.8693 112.979 41.51C112.73 41.1433 112.601 40.6997 112.594 40.179H114.079C114.094 40.5383 114.222 40.8427 114.464 41.092C114.713 41.334 115.054 41.455 115.487 41.455C115.861 41.455 116.158 41.367 116.378 41.191C116.598 41.0077 116.708 40.7657 116.708 40.465C116.708 40.1497 116.609 39.904 116.411 39.728C116.22 39.552 115.964 39.409 115.641 39.299C115.318 39.189 114.974 39.0717 114.607 38.947C114.013 38.7417 113.558 38.4777 113.243 38.155C112.935 37.8323 112.781 37.4033 112.781 36.868C112.774 36.4133 112.88 36.0247 113.1 35.702C113.327 35.372 113.635 35.119 114.024 34.943C114.413 34.7597 114.86 34.668 115.366 34.668C115.879 34.668 116.33 34.7597 116.719 34.943C117.115 35.1263 117.423 35.383 117.643 35.713C117.87 36.043 117.991 36.4353 118.006 36.89H116.499C116.492 36.6187 116.385 36.3803 116.18 36.175C115.982 35.9623 115.703 35.856 115.344 35.856C115.036 35.8487 114.776 35.9257 114.563 36.087C114.358 36.241 114.255 36.4683 114.255 36.769C114.255 37.0257 114.336 37.231 114.497 37.385C114.658 37.5317 114.878 37.6563 115.157 37.759C115.436 37.8617 115.755 37.9717 116.114 38.089C116.495 38.221 116.844 38.375 117.159 38.551C117.474 38.727 117.727 38.9617 117.918 39.255C118.109 39.541 118.204 39.9113 118.204 40.366C118.204 40.7693 118.101 41.1433 117.896 41.488C117.691 41.8327 117.386 42.1113 116.983 42.324C116.58 42.5293 116.085 42.632 115.498 42.632ZM120.933 42.5V34.8H125.96V35.933H122.341V38.045H125.63V39.145H122.341V41.367H125.96V42.5H120.933ZM128.792 42.5V34.8H131.619C132.235 34.8 132.741 34.9063 133.137 35.119C133.54 35.3243 133.841 35.6067 134.039 35.966C134.237 36.318 134.336 36.7103 134.336 37.143C134.336 37.6123 134.211 38.0413 133.962 38.43C133.72 38.8187 133.339 39.101 132.818 39.277L134.413 42.5H132.796L131.366 39.464H130.2V42.5H128.792ZM130.2 38.43H131.531C132 38.43 132.345 38.3163 132.565 38.089C132.785 37.8617 132.895 37.561 132.895 37.187C132.895 36.8203 132.785 36.527 132.565 36.307C132.352 36.087 132.004 35.977 131.52 35.977H130.2V38.43ZM139.11 42.5L136.294 34.8H137.801L139.979 41.059L142.168 34.8H143.653L140.837 42.5H139.11ZM146.068 42.5V34.8H147.476V42.5H146.068ZM153.956 42.632C153.178 42.632 152.511 42.467 151.954 42.137C151.396 41.7997 150.967 41.334 150.667 40.74C150.366 40.1387 150.216 39.4457 150.216 38.661C150.216 37.8763 150.366 37.1833 150.667 36.582C150.967 35.9807 151.396 35.5113 151.954 35.174C152.511 34.8367 153.178 34.668 153.956 34.668C154.88 34.668 155.635 34.899 156.222 35.361C156.816 35.8157 157.186 36.4573 157.333 37.286H155.782C155.686 36.868 155.481 36.5417 155.166 36.307C154.858 36.065 154.447 35.944 153.934 35.944C153.222 35.944 152.665 36.186 152.262 36.67C151.858 37.154 151.657 37.8177 151.657 38.661C151.657 39.5043 151.858 40.168 152.262 40.652C152.665 41.1287 153.222 41.367 153.934 41.367C154.447 41.367 154.858 41.257 155.166 41.037C155.481 40.8097 155.686 40.498 155.782 40.102H157.333C157.186 40.894 156.816 41.5137 156.222 41.961C155.635 42.4083 154.88 42.632 153.956 42.632ZM160.079 42.5V34.8H165.106V35.933H161.487V38.045H164.776V39.145H161.487V41.367H165.106V42.5H160.079Z" fill="#0D2436"/>
<g clip-path="url(#clip0_14477_85487)">
<path fill-rule="evenodd" clip-rule="evenodd" d="M11.1146 3.67468C10.2281 4.39428 9.06974 5.50937 7.92927 7.08307C6.78902 8.65699 5.66664 10.6891 4.98367 12.4664C4.3007 14.244 4.05691 15.7665 4.08134 16.9923C4.10599 18.2183 4.39862 19.1476 4.81089 19.7449C5.22339 20.3422 5.75529 20.6077 6.39349 20.6194C7.03168 20.6312 7.77594 20.3891 8.54665 19.8854C9.31737 19.3817 10.1148 18.6165 10.9187 17.7459C11.7227 16.8752 12.5337 15.8992 13.3066 14.8215C14.0799 13.744 14.8151 12.5649 15.1819 11.9676C15.5326 11.3965 15.4331 11.2835 16.0743 11.47C16.34 11.5474 16.7138 11.6941 16.996 11.9298C17.2783 12.1654 17.4689 12.49 17.4644 12.8648C17.4599 13.2396 17.2604 13.6646 16.9343 14.2815C16.6082 14.8984 16.1557 15.7072 15.7579 16.4763C15.3601 17.2455 15.017 17.9756 14.7945 18.5845C14.5722 19.1936 14.4706 19.6822 14.5824 19.9728C14.6941 20.2633 15.0193 20.3562 15.432 20.1968C15.8447 20.0375 16.345 19.6264 16.8902 19.0838C17.4355 18.5411 18.0259 17.8671 18.6738 17.051C19.3218 16.2349 20.0276 15.2768 20.6513 14.3607C21.233 13.5064 21.828 12.658 22.3275 11.7535C22.3958 11.6299 22.4657 11.5036 22.5344 11.4442C22.6034 11.3851 22.6717 11.3929 22.8929 11.47C23.1141 11.5474 23.4879 11.6941 23.7701 11.9298C24.0524 12.1654 24.243 12.49 24.2385 12.8648C24.234 13.2396 24.0345 13.6646 23.7084 14.2815C23.3823 14.8984 22.9298 15.7072 22.532 16.4763C22.1764 17.1635 21.7339 17.9816 21.5539 18.7376C21.4141 19.325 21.4677 19.7963 21.7251 19.9894C21.9824 20.1826 22.441 20.0099 23.2244 19.2603C24.0076 18.5107 25.1157 17.1844 26.1917 15.8512C27.268 14.5183 28.3153 13.2665 29.0435 12.5206C29.7719 11.775 30.1815 11.5354 30.6025 11.4234C31.0236 11.3113 31.4565 11.3269 31.7584 11.4349C32.0603 11.5432 32.2315 11.7441 32.3326 11.9682C32.4337 12.1923 32.4658 12.4802 32.4543 12.6191C32.443 12.7581 32.4515 12.7312 32.3419 12.743C32.2322 12.7545 32.0026 12.7641 31.6109 12.9379C31.4662 13.0022 31.2909 13.0911 31.0919 13.2027C31.1614 14.2373 31.3391 15.2966 31.4574 16.3305C31.5714 17.3273 31.6288 18.131 31.5838 18.8884C31.539 19.6455 31.3918 20.3565 31.0815 21.0134C30.7713 21.6703 30.2979 22.273 29.7473 22.6631C29.1966 23.0532 28.5683 23.2311 27.9577 23.2776C27.3471 23.3238 26.7539 23.2389 26.3037 23.0148C25.8534 22.7907 25.5461 22.4275 25.3588 21.9871C25.1713 21.5467 25.1037 21.0289 25.1578 20.519C25.2121 20.009 25.3878 19.5068 25.6413 19.0393C25.8948 18.5718 26.2259 18.139 26.4884 17.9111C26.751 17.683 26.945 17.6599 27.0952 17.683C27.2456 17.7061 27.3523 17.7757 27.4021 17.8337C27.4518 17.8918 27.4448 17.938 27.3853 18.0076C27.3261 18.0772 27.2148 18.1699 27.0468 18.4673C26.8788 18.7648 26.6544 19.2672 26.5425 19.7191C26.4305 20.1713 26.4308 20.5732 26.5373 20.832C26.644 21.091 26.8573 21.2068 27.1076 21.1834C27.3584 21.1603 27.6466 20.998 27.9283 20.7237C28.2101 20.4494 28.4856 20.063 28.6816 19.5608C28.8777 19.0584 28.9944 18.4404 29.0358 17.7101C29.0772 16.9799 29.0435 16.1376 29.0209 15.4537C29.0114 15.1639 29.0041 14.9026 29.0019 14.6634C28.5511 15.0391 28.0688 15.4826 27.5486 16.0213C25.8747 17.7546 24.3065 20.0901 22.6258 21.8121C21.7825 22.6762 19.8994 23.8464 18.6447 23.0492C17.7444 22.4775 17.7503 21.1612 17.9323 20.2678C17.997 19.9505 18.094 19.6335 18.2105 19.3212C17.6967 19.9752 17.2136 20.5468 16.7518 21.0232C15.9953 21.8037 15.2956 22.329 14.7004 22.6651C14.1052 23.0012 13.6144 23.1479 13.1985 23.1713C12.7827 23.1944 12.4416 23.0939 12.1512 22.8545C11.8611 22.6149 11.6218 22.2363 11.4965 21.7303C11.3713 21.2241 11.3602 20.5905 11.4809 19.9027C11.5189 19.686 11.5703 19.4639 11.6359 19.2327C10.907 20.2011 10.1747 21.115 9.21877 21.8806C8.42906 22.513 7.50117 23.0519 6.45319 23.3251C5.40544 23.5986 4.23761 23.6063 3.29818 23.3173C2.35876 23.0286 1.6482 22.4428 1.10182 21.5878C0.555216 20.7328 0.173023 19.6084 0.0459274 18.2895C-0.0811685 16.9708 0.0470581 15.4575 0.583937 13.6929C1.12104 11.9284 2.06725 9.91257 3.20795 8.10723C4.34864 6.30189 5.68406 4.70729 7.07465 3.46505C8.46547 2.22303 9.91124 1.33381 11.1128 0.881197C12.3143 0.428806 13.2714 0.413244 14.0251 0.651333C14.7789 0.889422 15.3291 1.38161 15.6819 1.98294C16.0349 2.58405 16.1903 3.29454 16.1593 4.17687C16.1283 5.05942 15.9108 6.11359 15.529 7.1402C15.1473 8.16725 14.6013 9.16651 14.1115 9.96681C13.6217 10.7673 13.1879 11.3684 12.7915 11.7152C12.395 12.062 12.0361 12.1543 11.7765 12.098C11.5171 12.0418 11.3575 11.8368 11.2742 11.707C11.1912 11.5772 11.1849 11.5225 11.2218 11.4836C11.2584 11.4447 11.3382 11.4211 11.5732 11.091C11.8084 10.7609 12.1987 10.124 12.6422 9.16695C13.0859 8.20993 13.5828 6.93279 13.846 5.85505C14.1095 4.77754 14.1393 3.89943 13.9978 3.34145C13.8564 2.78346 13.5434 2.54515 13.0796 2.58806C12.6158 2.63118 12.0006 2.95508 11.1141 3.67491L11.1146 3.67468ZM143.101 13.7295C142.592 14.4451 142.118 15.265 141.719 16.23C141.321 17.1951 140.997 18.305 140.922 19.2901C140.848 20.2751 141.022 21.1352 141.351 21.7637C141.681 22.3921 142.164 22.7891 142.836 22.9803C143.508 23.1715 144.37 23.1566 145.173 22.8921C145.975 22.6275 146.72 22.1129 147.427 21.4035C147.946 20.884 148.444 20.26 148.922 19.6013C148.891 19.9623 148.891 20.3102 148.927 20.6281C149.001 21.2897 149.227 21.821 149.542 22.2189C149.856 22.6166 150.259 22.881 150.817 23.0139C151.376 23.1468 152.09 23.1488 152.781 22.9376C153.473 22.7267 154.142 22.3023 154.785 21.6947C155.429 21.0872 156.047 20.2962 156.594 19.427C157.14 18.558 157.615 17.6105 157.932 16.6682C158.053 16.3072 158.151 15.9468 158.22 15.5945C158.395 15.5558 158.586 15.4998 158.785 15.4246C159.197 15.2695 159.644 15.0338 160.094 14.725L159.991 14.9451C159.44 16.1198 158.804 17.5183 158.364 18.5229C157.923 19.5275 157.68 20.1379 157.566 20.6286C157.452 21.1192 157.468 21.4902 157.562 21.807C157.656 22.1238 157.829 22.3866 158.048 22.5797C158.268 22.7729 158.533 22.8967 158.803 22.9661C159.072 23.0357 159.346 23.0512 159.482 23.0048C159.595 22.9663 159.736 22.6818 159.797 22.5795C160.07 22.1267 160.601 21.2054 161.337 20.1104C162.072 19.0153 163.012 17.7464 163.911 16.5904C164.698 15.5782 165.454 14.6523 166.094 13.9863L165.591 15.0182C165.026 16.1782 164.359 17.5476 163.904 18.5376C163.449 19.5275 163.206 20.1382 163.092 20.6288C162.978 21.1194 162.994 21.4904 163.088 21.8072C163.182 22.124 163.355 22.3868 163.574 22.58C163.794 22.7731 164.059 22.897 164.314 22.9663C164.568 23.0359 164.812 23.0515 164.934 23.005C165.049 22.961 165.282 22.5575 165.345 22.4577C165.705 21.8939 166.403 20.7915 167.241 19.6604C167.981 18.6598 168.831 17.637 169.547 16.9185L169.354 17.3438C168.917 18.3059 168.43 19.4108 168.202 20.2453C167.974 21.0798 168.005 21.6441 168.155 22.0573C168.304 22.4708 168.571 22.7333 168.886 22.8881C169.2 23.0426 169.562 23.089 169.853 23.0966C170.143 23.1044 170.364 23.0735 170.454 23.0192C170.544 22.9652 170.505 22.8878 170.505 22.606C170.505 22.3239 170.544 21.837 170.654 21.2421C170.764 20.647 170.945 19.9441 171.258 19.0669C171.571 18.1899 172.015 17.1388 172.24 16.401C172.464 15.6632 172.469 15.2381 172.317 14.9329C172.117 14.5285 171.636 14.2773 171.188 14.2684C169.968 14.2444 167.966 17.071 167.284 17.932C167.146 18.1061 167.005 18.2864 166.863 18.47C166.995 18.1696 167.123 17.8789 167.243 17.6088C167.607 16.7898 167.895 16.1613 168.053 15.8161C168.211 15.4711 168.24 15.4093 168.362 15.1407C168.485 14.8724 168.701 14.3976 168.873 13.8712C169.044 13.3447 169.169 12.767 169.062 12.3157C168.954 11.8646 168.612 11.5398 168.259 11.3893C167.323 10.9899 166.624 11.6074 166.033 12.2508C165.529 12.7994 164.737 13.7344 163.905 14.7784C163.082 15.8103 162.22 16.9485 161.44 18.0947C161.545 17.844 161.653 17.5874 161.765 17.3258C162.237 16.2238 162.77 15.0294 163.099 14.1435C163.428 13.2574 163.554 12.6796 163.446 12.2283C163.338 11.7773 162.997 11.4525 162.644 11.302C162.291 11.1513 161.927 11.1746 161.756 11.2093C161.586 11.244 161.61 11.2904 161.594 11.4025C161.548 11.7279 161.002 12.4208 160.821 12.6391C160.442 13.0971 159.888 13.6417 159.361 14.0261C158.994 14.2942 158.64 14.484 158.335 14.6141C158.341 14.3973 158.333 14.187 158.308 13.9852C158.099 12.253 156.718 11.2211 154.983 11.1988C153.404 11.1786 151.932 11.9166 150.916 13.0024C150.488 13.4601 150.168 14.1424 150.065 14.5198C149.961 14.8973 150.01 15.2085 150.184 15.5249C150.208 15.5682 150.234 15.6118 150.263 15.6552C149.769 16.5377 149.162 17.4176 148.566 18.2288C147.937 19.0842 147.211 19.9225 146.565 20.4958C145.918 21.0694 145.35 21.378 144.906 21.3595C144.461 21.3413 144.139 20.9958 143.989 20.4996C143.839 20.0034 143.861 19.3565 144.036 18.5625C144.211 17.7684 144.54 16.8269 144.963 15.9266C145.387 15.0262 145.905 14.1664 146.418 13.6813C146.931 13.1965 147.437 13.0862 147.734 13.2443C148.031 13.4023 148.119 13.8287 148.046 14.3396C147.973 14.8504 147.74 15.446 147.534 15.8979C147.329 16.3501 147.151 16.6589 147.039 16.8351C146.926 17.0117 146.879 17.0557 146.934 17.1181C146.988 17.1806 147.142 17.2615 147.36 17.2909C147.578 17.3202 147.858 17.2984 148.146 17.0226C148.434 16.7469 148.729 16.2176 148.971 15.5598C149.212 14.902 149.399 14.1155 149.264 13.4243C149.13 12.7334 148.675 12.1378 148.161 11.7777C147.647 11.4176 147.074 11.2926 146.487 11.3342C145.9 11.376 145.298 11.5843 144.725 11.994C144.152 12.4037 143.609 13.0146 143.1 13.7302L143.101 13.7295ZM128.393 12.8241C128.307 12.6903 128.207 12.5556 128.091 12.4268C127.735 12.0334 127.228 11.6981 126.723 11.5112C126.217 11.3242 125.713 11.2853 125.171 11.3749C124.629 11.4645 124.049 11.6828 123.436 12.084C122.824 12.4853 122.178 13.0697 121.62 13.7905C121.062 14.5112 120.592 15.3686 120.201 16.2334C119.81 17.0984 119.498 17.9711 119.334 18.7932C119.196 19.4895 119.165 20.1495 119.221 20.7233C118.689 21.1721 118.21 21.4071 117.827 21.3539C117.409 21.2959 117.106 20.8942 117.071 20.2373C117.036 19.5806 117.268 18.6687 117.581 17.7655C117.894 16.8623 118.289 15.9677 118.648 15.1496C119.007 14.3315 119.331 13.5897 119.417 13.0488C119.503 12.508 119.351 12.1679 119.113 11.8975C118.153 10.8071 116.999 11.3544 116.215 12.2121C115.754 12.7169 115.043 13.5644 114.209 14.6521C113.481 15.6016 112.659 16.7342 111.92 17.8364L112.023 17.5939C112.495 16.4919 113.028 15.2975 113.357 14.4116C113.686 13.5255 113.812 12.9477 113.704 12.4964C113.596 12.0454 113.255 11.7206 112.902 11.5701C112.549 11.4194 112.185 11.4427 112.014 11.4774C111.844 11.5121 111.868 11.5585 111.852 11.6706C111.761 12.3226 110.772 13.9094 110.421 14.4694C109.849 15.3855 109.196 16.3439 108.594 17.1597C107.992 17.9758 107.439 18.6498 106.924 19.1925C106.409 19.7351 105.931 20.1462 105.527 20.3056C105.123 20.4649 104.793 20.372 104.665 20.0815C104.537 19.7909 104.611 19.3023 104.8 18.6932C104.988 18.0841 105.291 17.3542 105.646 16.5851C106.001 15.8159 106.408 15.0071 106.7 14.3902C106.991 13.7733 107.167 13.3483 107.151 12.9735C107.134 12.5987 106.926 12.2741 106.63 12.0385C106.335 11.8028 105.953 11.6561 105.683 11.5787C105.413 11.5014 105.255 11.4936 105.185 11.5092C105.116 11.5247 105.135 11.5634 105.118 11.687C105.101 11.8106 105.048 12.0194 104.801 12.5182C104.555 13.0171 104.114 13.806 103.626 14.7415C103.138 15.6769 102.601 16.7587 102.228 17.6706C102.054 18.0929 101.916 18.4791 101.809 18.8399L101.743 18.9168C101.242 19.4986 100.595 20.1366 100.012 20.4478C99.4286 20.7591 98.91 20.7437 98.631 20.4694C98.3519 20.1951 98.3126 19.662 98.4697 18.9317C98.6269 18.2014 98.9806 17.2742 99.641 15.775C100.301 14.276 101.268 12.205 102.063 10.483L102.174 10.2429C102.522 10.2411 102.849 10.2349 103.131 10.2227C104.264 10.1733 104.692 10.0246 104.963 9.75606C105.234 9.48752 105.348 9.09937 105.404 8.8704C105.46 8.64142 105.458 8.57184 105.384 8.54872C105.309 8.5256 105.162 8.54872 104.821 8.5565C104.48 8.56429 103.945 8.5565 103.062 8.5525L102.947 8.55206C103.326 7.71686 103.632 7.02171 103.851 6.49307C104.221 5.59807 104.339 5.1808 104.304 4.80199C104.269 4.42341 104.08 4.08328 103.785 3.84386C103.49 3.60421 103.09 3.46527 102.831 3.39169C102.573 3.31833 102.457 3.31055 102.395 3.3579C102.333 3.40525 102.325 3.50773 102.27 3.68046C102.215 3.85342 102.113 4.09684 101.831 4.72241C101.55 5.34797 101.09 6.35546 100.576 7.45632C100.412 7.80756 100.243 8.16858 100.065 8.54583L99.9978 8.54561C99.0473 8.54272 98.3772 8.53694 97.9055 8.62586C97.4337 8.71479 97.1608 8.89819 97.0104 9.16584C96.86 9.4335 96.8326 9.78496 96.8277 9.98593C96.8227 10.1869 96.8406 10.2371 96.8817 10.2429C96.9229 10.2487 96.9878 10.21 97.2325 10.1907C97.4772 10.1713 97.9016 10.1713 99.0322 10.1964L99.2882 10.2022C99.1323 10.5352 98.9702 10.8831 98.8004 11.2495C97.6255 13.7822 97.1051 14.8533 95.4022 17.1599C94.7998 17.976 94.2471 18.65 93.7319 19.1927C93.217 19.7353 92.7396 20.1464 92.3357 20.3058C91.9318 20.4652 91.6016 20.3722 91.4736 20.0817C91.3456 19.7911 91.4198 19.3025 91.6084 18.6934C91.7967 18.0843 92.0991 17.3545 92.4539 16.5853C92.809 15.8161 93.2163 15.0074 93.508 14.3905C93.7997 13.7736 93.9755 13.3485 93.959 12.9737C93.9424 12.5989 93.7339 12.2743 93.4386 12.0387C93.1432 11.803 92.7613 11.6563 92.491 11.579C92.2212 11.5016 92.0632 11.4938 91.9937 11.5094C91.9243 11.5249 91.9433 11.5636 91.9263 11.6872C91.9096 11.8108 91.8567 12.0196 91.6097 12.5184C91.363 13.0173 90.9225 13.8062 90.4342 14.7417C89.9459 15.6772 89.4097 16.7589 89.0359 17.6708C88.7584 18.3482 88.5703 18.9315 88.4581 19.4686C87.8622 20.0757 87.326 20.5719 86.845 20.8584C86.352 21.1523 85.9173 21.2257 85.6828 21.0641C85.4483 20.9027 85.4139 20.5061 85.5324 19.9994C85.6511 19.4928 85.9225 18.8761 86.2821 18.1127C86.6417 17.3496 87.0894 16.4397 87.3608 15.7719C87.6322 15.1041 87.7272 14.6781 87.584 14.3604C87.4409 14.0428 87.0598 13.8331 86.7726 13.5868C86.4854 13.3405 86.2918 13.0573 86.2511 12.7616C86.1071 11.7152 88.3036 9.97348 88.9968 9.21631C89.1693 9.02801 89.1445 9.05669 89.0927 8.87196C88.936 8.3133 88.1784 7.77755 87.622 7.71419C87.2941 7.67684 86.9083 7.73709 86.5209 7.97295C86.1337 8.20882 85.7452 8.62053 85.3476 9.1485C84.9499 9.6767 84.5432 10.3212 84.3288 10.7942C84.1145 11.2675 84.0925 11.5692 84.1235 11.8817C84.1522 12.1716 84.2266 12.4704 84.444 12.7378C84.0163 13.2016 83.6296 13.6308 83.2788 14.0448C82.7216 14.7024 82.2548 15.3217 81.9814 15.7883C81.7082 16.2549 81.6282 16.5688 81.6171 16.8358C81.6062 17.103 81.6641 17.3233 81.8039 17.4756C81.9439 17.6279 82.1655 17.7121 82.2795 17.7175C82.3935 17.7228 82.3996 17.6492 82.4912 17.444C82.5827 17.2391 82.7598 16.903 83.1142 16.3399C83.4686 15.777 84.0002 14.9869 84.8669 13.9014C84.9847 13.7538 85.1088 13.6006 85.2373 13.4441C85.6487 13.8698 85.3793 14.3238 85.1272 14.7715C84.8047 15.3441 84.2486 16.174 83.7063 17.099C83.1642 18.0243 82.6359 19.0451 82.3677 19.8489C82.0992 20.653 82.0909 21.2406 82.2082 21.7581C82.3256 22.2758 82.569 22.7238 83.0095 22.9808C83.4503 23.2378 84.0884 23.304 84.6873 23.2202C85.2861 23.1366 85.8456 22.9034 86.4309 22.5215C87.0164 22.1396 87.6275 21.6094 88.288 20.9367L88.3326 20.8911C88.3482 21.2383 88.4004 21.5587 88.4855 21.8399C88.639 22.3461 88.8993 22.7247 89.2028 22.9641C89.5063 23.2037 89.8532 23.3042 90.2678 23.2809C90.6823 23.2578 91.1651 23.1108 91.7416 22.7747C92.318 22.4386 92.9883 21.9133 93.7014 21.1328C94.2661 20.5147 94.8574 19.7367 95.4981 18.8254C95.3961 19.1216 95.3109 19.3985 95.2433 19.658C94.9972 20.6032 94.9893 21.3142 95.0992 21.8435C95.2093 22.3728 95.4373 22.7205 95.791 22.9639C96.1449 23.2073 96.6244 23.3465 97.2438 23.3064C97.8632 23.2664 98.6222 23.0472 99.4392 22.4813C100.121 22.0089 100.844 21.2948 101.52 20.5568C101.51 21.0334 101.565 21.4707 101.677 21.8401C101.831 22.3463 102.091 22.7249 102.394 22.9643C102.698 23.204 103.045 23.3045 103.459 23.2811C103.874 23.258 104.357 23.111 104.933 22.7749C105.51 22.4388 106.18 21.9135 106.893 21.133C107.393 20.5854 107.914 19.9121 108.473 19.132C108.124 19.9392 107.923 20.4652 107.822 20.898C107.708 21.3886 107.724 21.7597 107.819 22.0764C107.913 22.3932 108.086 22.656 108.305 22.8492C108.524 23.0424 108.79 23.1662 109.059 23.2355C109.329 23.3051 109.602 23.3207 109.739 23.2742C109.85 23.2366 109.983 22.9532 110.043 22.8489C110.304 22.3961 110.811 21.4749 111.576 20.2922C112.341 19.1096 113.362 17.6655 114.26 16.4657C115.158 15.2659 115.932 14.3102 116.578 13.6817C116.616 13.6448 116.653 13.6091 116.69 13.5744C116.4 14.1566 115.987 14.9095 115.584 15.7272C115.026 16.8623 114.489 18.1216 114.195 19.1687C113.901 20.2157 113.85 21.0505 114.021 21.7072C114.192 22.3641 114.585 22.8432 115.135 23.0982C115.685 23.3531 116.393 23.384 117.056 23.2333C117.718 23.0826 118.336 22.7505 118.979 22.2558C119.145 22.1276 119.314 21.9886 119.481 21.8408C119.594 22.1122 119.739 22.3454 119.917 22.5393C120.254 22.9056 120.707 23.1315 121.234 23.2289C121.762 23.3265 122.363 23.2953 122.928 23.0459C123.372 22.8498 123.793 22.5193 124.193 22.0669C124.059 22.4086 123.923 22.7485 123.787 23.0824C123.17 23.4423 122.568 23.7662 122.044 24.0447C120.916 24.6447 120.147 25.036 119.558 25.401C118.073 26.3222 117.006 27.8137 117.223 29.6237C117.308 30.3342 117.645 31.0258 118.058 31.5449C118.565 32.1815 119.355 32.6448 120.186 32.7284C121.016 32.812 121.888 32.5157 122.569 31.9197C123.25 31.3234 123.74 30.4273 124.366 28.9897C124.991 27.552 125.752 25.5726 126.436 23.7491C126.63 23.2318 126.818 22.7271 126.998 22.2383C128.02 21.3864 129.013 20.372 129.823 19.3428C130.716 18.2077 131.388 17.0546 131.925 16.17C132.252 15.6316 132.529 15.1928 132.794 14.8248C132.795 14.9776 132.796 15.139 132.797 15.3101C132.802 15.9997 132.803 16.8492 132.728 17.5854C132.654 18.3219 132.505 18.9453 132.286 19.485C132.066 20.0248 131.777 20.481 131.421 20.8471C131.065 21.2134 130.643 21.49 130.291 21.5954C129.94 21.7005 129.658 21.6343 129.477 21.5622C129.296 21.4902 129.216 21.4122 129.192 21.4882C129.168 21.5642 129.2 21.7941 129.331 22.0842C129.461 22.3743 129.69 22.7249 130.101 22.9723C130.511 23.22 131.104 23.3645 131.73 23.3471C132.355 23.3298 133.014 23.1506 133.596 22.7422C134.178 22.3341 134.684 21.6967 135.012 21.0049C135.34 20.3131 135.49 19.5666 135.509 18.7883C135.527 18.01 135.414 17.1995 135.274 16.1942C135.131 15.1587 134.956 14.0712 134.892 13.0299C135.161 12.9061 135.384 12.8383 135.543 12.8034C135.755 12.7567 135.854 12.7683 135.906 12.7527C135.958 12.7372 135.962 12.6943 135.939 12.5598C135.916 12.4255 135.865 12.1994 135.739 11.9793C135.612 11.7593 135.409 11.545 135.121 11.43C134.832 11.3151 134.457 11.2995 134.087 11.3744C133.717 11.4494 133.352 11.6148 132.988 12.0042C132.624 12.3939 132.261 13.0077 131.876 13.724C131.49 14.4403 131.083 15.259 130.606 16.1022C130.128 16.9456 129.579 17.814 128.825 18.7721C128.532 19.1436 128.209 19.5286 127.851 19.915L128.221 18.8984C128.716 17.5385 129.099 16.4866 129.445 15.606C129.792 14.7255 130.101 14.0163 130.272 13.6433C130.443 13.27 130.475 13.2329 130.486 13.1782C130.497 13.1238 130.488 13.052 130.314 12.9281C130.141 12.8043 129.804 12.6285 129.431 12.5836C129.096 12.5431 128.732 12.608 128.392 12.8261L128.393 12.8241ZM124.553 19.9903C124.146 20.5679 123.736 20.9358 123.383 21.0465C123.029 21.1574 122.731 21.0109 122.55 20.6377C122.369 20.2646 122.303 19.6644 122.381 18.9342C122.46 18.2039 122.682 17.3431 123.044 16.5077C123.406 15.6723 123.908 14.8617 124.432 14.2811C124.957 13.7006 125.503 13.3501 126.033 13.2294C126.563 13.1084 127.077 13.2176 127.381 13.389C127.5 13.4559 127.586 13.5321 127.657 13.6128C127.502 13.8511 127.342 14.1415 127.171 14.4954C126.284 16.3287 125.749 18.293 124.553 19.9901L124.553 19.9903ZM120.389 26.4318C121.058 25.9719 122.015 25.4435 123.023 24.8701C122.37 26.3205 121.742 27.5102 121.228 28.3101C120.889 28.8374 120.588 29.1833 120.339 29.4301C119.822 29.9423 118.868 30.021 118.824 28.939C118.782 27.9004 119.589 26.9823 120.389 26.4321V26.4318ZM138.229 19.4877C139.024 19.4877 139.524 20.2615 139.346 21.2163C139.168 22.1711 138.38 22.9452 137.585 22.9452C136.791 22.9452 136.29 22.1714 136.468 21.2163C136.646 20.2615 137.434 19.4877 138.229 19.4877ZM108.19 6.94968C108.984 6.94968 109.402 7.84224 109.124 8.94332C108.845 10.0444 107.974 10.9369 107.18 10.9369C106.385 10.9369 105.967 10.0444 106.246 8.94332C106.524 7.84224 107.395 6.94968 108.19 6.94968ZM94.9981 6.94968C95.7928 6.94968 96.211 7.84224 95.9321 8.94332C95.6533 10.0444 94.7828 10.9369 93.9881 10.9369C93.1934 10.9369 92.7753 10.0444 93.0541 8.94332C93.333 7.84224 94.2032 6.94968 94.9981 6.94968ZM75.445 9.7156C74.9749 10.1522 74.4755 10.8013 74.0223 11.5507C73.5691 12.3003 73.1618 13.1504 72.8615 13.9539C72.5612 14.7575 72.3678 15.5147 72.25 16.2256C72.1862 16.6104 72.1446 16.9819 72.129 17.3605C71.505 18.0894 70.9046 18.6434 70.4096 18.9651C69.7712 19.3801 69.308 19.4094 69.0364 19.1767C68.765 18.9439 68.6854 18.4495 68.7345 17.8004C68.7836 17.1513 68.9615 16.3476 69.2399 15.4111C69.5186 14.4743 69.8978 13.4045 70.4057 12.2168C70.9139 11.029 71.551 9.72316 72.1362 8.65676C72.7217 7.59037 73.2554 6.76361 73.6713 6.1685C74.0874 5.57339 74.3857 5.21037 74.597 4.9785C74.8082 4.74664 74.9321 4.64616 75.0061 4.5768C75.08 4.50722 75.1038 4.46876 75.0271 4.35672C74.6745 3.84208 73.829 3.69514 73.2453 3.73849C72.7783 3.77316 72.2857 3.92767 71.7703 4.33337C71.2547 4.73908 70.7162 5.39599 70.0857 6.37947C69.4552 7.36295 68.7325 8.67344 68.0454 10.1415C67.3584 11.6096 66.7073 13.2358 66.2068 14.7288C65.7064 16.2218 65.3567 17.5819 65.1783 18.7256C65.0001 19.8694 64.9931 20.7966 65.143 21.496C65.293 22.1954 65.6003 22.6667 65.9979 22.9332C66.3957 23.1997 66.8841 23.2615 67.355 23.2153C67.8258 23.1691 68.279 23.0143 68.8544 22.6551C69.4297 22.2959 70.1271 21.7316 70.8696 20.9976C71.3352 20.5372 71.8183 20.0101 72.2984 19.453C72.3798 19.8634 72.4904 20.2691 72.6317 20.6383C72.9008 21.3415 73.2812 21.9135 73.6799 22.3192C74.0786 22.7249 74.4952 22.9643 74.9192 23.1066C75.343 23.2487 75.7741 23.2933 76.0292 23.2718C76.2845 23.2502 76.3639 23.1626 76.7022 22.4541C77.0405 21.7456 77.6378 20.4167 78.5051 18.6789C79.3723 16.9414 80.5094 14.7951 81.5791 13.0282C82.649 11.2613 83.6515 9.87388 84.7024 8.63987C85.7534 7.40608 86.8522 6.32589 87.869 5.54227C88.8858 4.75887 89.8204 4.27202 90.6497 3.93989C91.4792 3.60799 92.2034 3.43104 92.6269 3.35768C93.0505 3.28432 93.1733 3.31455 93.1317 3.07846C93.0899 2.84237 92.8836 2.34019 92.5055 1.91514C92.1276 1.49009 91.5778 1.14241 90.9195 0.995684C90.2612 0.84874 89.4945 0.902983 88.6103 1.26223C87.7263 1.62147 86.7249 2.28594 85.6943 3.28498C84.6638 4.28402 83.6036 5.61763 82.6033 7.0386C81.6031 8.45958 80.6623 9.96792 79.658 11.8206C78.6539 13.6733 77.5864 15.8703 76.9308 17.1928C76.2752 18.5153 76.0319 18.9637 75.7752 19.122C75.5185 19.2805 75.2489 19.1489 75.0357 18.8034C74.8227 18.458 74.6659 17.8982 74.5506 17.3593C74.5063 17.1522 74.4681 16.9481 74.4357 16.7607C74.732 16.3554 75.0271 15.9364 75.3247 15.4958C76.0484 14.4256 76.7888 13.2296 77.3096 12.2683C77.8304 11.3071 78.1321 10.5808 78.1735 10.0437C78.2151 9.50664 77.9967 9.15895 77.6792 8.98889C76.9709 8.60964 75.9636 9.23365 75.4448 9.71538L75.445 9.7156ZM36.1086 8.55295L37.219 8.56495C37.3997 8.18059 37.572 7.81356 37.7389 7.45609C38.2527 6.35524 38.7132 5.34775 38.9945 4.72219C39.2758 4.09662 39.378 3.85319 39.433 3.68024C39.488 3.50729 39.4959 3.40503 39.5578 3.35768C39.6198 3.31033 39.7356 3.31811 39.9941 3.39147C40.2526 3.46483 40.6533 3.60399 40.9482 3.84364C41.2431 4.08328 41.4317 4.42318 41.467 4.80177C41.5023 5.18036 41.3844 5.59762 41.014 6.49285C40.7931 7.02704 40.4821 7.73131 40.0986 8.57829C41.0805 8.57473 41.9874 8.56317 42.6853 8.56006C43.5145 8.55628 44.0492 8.56406 44.3902 8.55628C44.7312 8.5485 44.8787 8.52516 44.9533 8.5485C45.0279 8.57162 45.03 8.6412 44.9739 8.87018C44.9178 9.09915 44.8038 9.4873 44.5327 9.75584C44.2615 10.0244 43.8332 10.1731 42.8406 10.2147C41.9742 10.2509 40.6784 10.2056 39.367 10.1767L39.2258 10.4826C38.4312 12.2045 37.4641 14.2755 36.8038 15.7745C36.1434 17.2738 35.7897 18.201 35.6326 18.9313C35.4754 19.6615 35.5147 20.1946 35.7938 20.4689C36.0729 20.7433 36.5917 20.7588 37.1744 20.4474C37.6322 20.2031 38.1295 19.7571 38.565 19.2952C38.6021 19.0611 38.6512 18.825 38.7111 18.5907C38.9083 17.8206 39.2234 17.0726 39.5425 16.4223C39.6424 16.2187 39.7426 16.0246 39.8453 15.8406C39.817 15.7974 39.7908 15.7539 39.7668 15.7103C39.5924 15.3939 39.5438 15.0827 39.6474 14.7052C39.751 14.3278 40.0705 13.6455 40.4986 13.1878C41.5147 12.102 42.9863 11.3638 44.5655 11.3842C46.3003 11.4067 47.6818 12.4386 47.8908 14.1706C47.9152 14.3725 47.9233 14.583 47.9172 14.7995C48.2223 14.6697 48.5762 14.4796 48.9433 14.2115C49.47 13.8271 50.0243 13.2823 50.4035 12.8245C50.5844 12.606 51.131 11.9131 51.1767 11.5879C51.1925 11.4758 51.1688 11.4294 51.3391 11.3947C51.5096 11.36 51.8737 11.3367 52.2265 11.4874C52.5793 11.6381 52.921 11.9627 53.0289 12.4137C53.1367 12.865 53.011 13.4428 52.6815 14.3289C52.3522 15.215 51.8194 16.4094 51.3477 17.5112C51.2498 17.7399 51.1545 17.9645 51.0618 18.185L51.0688 18.1745C51.9309 16.8687 52.9522 15.4235 53.8586 14.2335C54.7652 13.0435 55.5574 12.1085 56.0611 11.5598C56.5649 11.0112 56.7805 10.8489 56.9955 10.7522C57.2104 10.6557 57.425 10.6248 57.6211 10.6286C58.2493 10.6411 58.8565 11.1103 59.0006 11.7123C59.1084 12.1636 58.9827 12.7414 58.8115 13.2678C58.6403 13.7942 58.4234 14.2691 58.3011 14.5374C58.1785 14.8057 58.1505 14.8675 57.9329 15.3441C57.7154 15.8208 57.3088 16.712 56.8852 17.6626C56.74 17.9885 56.5928 18.3213 56.4469 18.6538C56.5885 18.4706 56.7291 18.291 56.8666 18.1172C57.8554 16.8685 58.6772 15.9335 59.1957 15.3848C59.8495 14.6935 61.241 13.7869 61.8998 15.1181C62.0509 15.4233 62.0466 15.8483 61.822 16.5862C61.5977 17.3242 61.1528 18.3751 60.8403 19.252C60.5275 20.129 60.3468 20.8322 60.2367 21.4273C60.1268 22.0224 60.0874 22.5093 60.0874 22.7911C60.0874 23.0733 60.1268 23.1504 60.0363 23.2044C59.9459 23.2587 59.7258 23.2893 59.435 23.2818C59.1442 23.274 58.7826 23.2278 58.4682 23.0733C58.1539 22.9188 57.8866 22.656 57.7371 22.2425C57.5876 21.8292 57.5564 21.265 57.7841 20.4305C58.0121 19.596 58.4994 18.4911 58.9359 17.529L59.1295 17.1037C58.4135 17.8222 57.5638 18.8452 56.823 19.8456C55.9856 20.9767 55.2874 22.0791 54.9279 22.6429C54.8643 22.7427 54.6316 23.1462 54.5163 23.1902C54.3944 23.2366 54.1508 23.2211 53.8962 23.1515C53.6415 23.0819 53.376 22.9583 53.1566 22.7651C52.9375 22.572 52.7645 22.3092 52.6702 21.9924C52.5759 21.6756 52.5601 21.3046 52.674 20.814C52.788 20.3233 53.0318 19.7129 53.5463 18.5914C54.0608 17.4701 54.8462 15.8377 55.4706 14.5463L56.0287 13.3934C55.4075 14.0543 54.6761 14.96 53.8647 16.0455C52.8914 17.3476 51.8029 18.9086 50.9931 20.1497C50.1832 21.3908 49.6525 22.3121 49.3795 22.7649C49.318 22.8672 49.1776 23.1517 49.0645 23.1902C48.9279 23.2366 48.6545 23.2211 48.3849 23.1515C48.1156 23.0819 47.8498 22.9583 47.6307 22.7651C47.4115 22.572 47.2385 22.3092 47.1442 21.9924C47.0499 21.6756 47.0341 21.3046 47.1481 20.814C47.2621 20.3233 47.5059 19.7129 47.9459 18.7083C48.3863 17.7037 49.0229 16.3052 49.5731 15.1305L49.6764 14.9104C49.2269 15.2192 48.7793 15.4551 48.3677 15.61C48.1687 15.6852 47.9778 15.7412 47.8023 15.7799C47.7331 16.1322 47.6352 16.4924 47.514 16.8536C47.1976 17.7957 46.7227 18.7434 46.1761 19.6124C45.6295 20.4816 45.0114 21.2726 44.3678 21.8801C43.7242 22.4877 43.0552 22.9121 42.3637 23.123C41.6721 23.3342 40.9579 23.3325 40.3996 23.1993C39.8412 23.0664 39.4387 22.802 39.1241 22.4043C38.7428 21.9224 38.565 21.3519 38.5028 20.7508C37.8794 21.418 37.2244 22.0491 36.6027 22.4797C35.7857 23.0457 35.0267 23.2649 34.4073 23.3049C33.7881 23.3449 33.3084 23.206 32.9545 22.9623C32.6008 22.7189 32.3728 22.3712 32.2627 21.8419C32.1528 21.3126 32.1607 20.6017 32.4068 19.6564C32.6528 18.7112 33.137 17.5316 33.7908 16.0404C34.4446 14.5494 35.268 12.7467 35.9632 11.2484C36.1416 10.864 36.3115 10.4997 36.4743 10.1518C35.8813 10.1538 35.3515 10.1591 34.9267 10.1624C33.9952 10.1702 33.5708 10.1702 33.3261 10.1896C33.0814 10.2089 33.0167 10.2476 32.9753 10.2418C32.9341 10.236 32.9163 10.1858 32.9213 9.98482C32.9262 9.78385 32.9536 9.43239 33.104 9.16473C33.2544 8.89708 33.5273 8.71367 33.9991 8.62475C34.4708 8.53583 35.1409 8.54161 36.1088 8.55228L36.1086 8.55295ZM155.527 16.0898C155.119 17.2086 154.372 18.4882 153.764 19.3448C153.157 20.2013 152.689 20.635 152.335 20.7851C151.982 20.9353 151.742 20.8026 151.612 20.5472C151.482 20.292 151.46 19.9145 151.527 19.4299C151.593 18.9455 151.748 18.3544 151.988 17.7093C152.229 17.0641 152.556 16.3652 152.864 15.8334C153.172 15.3017 153.46 14.9369 153.612 14.709C153.764 14.4812 153.778 14.3905 153.538 14.2144C153.346 14.0728 152.988 13.876 152.607 13.8205C152.633 13.7896 152.66 13.7591 152.687 13.7293C153.031 13.3483 153.432 13.0651 153.788 12.8728C154.197 12.652 154.894 12.3735 155.367 12.6736C156.323 13.2798 155.77 15.4253 155.527 16.0898H155.527ZM45.1098 16.2752C44.7012 17.394 43.9542 18.6736 43.3465 19.5302C42.7391 20.3867 42.2712 20.8204 41.9175 20.9705C41.564 21.1207 41.3247 20.988 41.1945 20.7326C41.0642 20.4774 41.0425 20.0999 41.109 19.6153C41.1755 19.1309 41.3299 18.5398 41.5708 17.8947C41.8116 17.2495 42.1384 16.5506 42.4462 16.0188C42.754 15.4871 43.0428 15.1223 43.1943 14.8944C43.3461 14.6666 43.3605 14.5759 43.1208 14.3998C42.9281 14.2582 42.5706 14.0614 42.1891 14.0059C42.2153 13.975 42.242 13.9445 42.2689 13.9147C42.7886 13.3407 44.1674 12.363 44.9492 12.8588C45.9054 13.465 45.3522 15.6105 45.1096 16.2749L45.1098 16.2752Z" fill="#05ADA3"/>
</g>
<defs>
<clipPath id="clip0_14477_85487">
<rect width="172.421" height="32.2544" fill="white" transform="translate(0 0.5)"/>
</clipPath>
</defs>
</svg>
